<svg xmlns="http://www.w3.org/2000/svg" xmlns:xlink="http://www.w3.org/1999/xlink" width="306.158" height="156.081" viewBox="0 0 306.158 156.081">
  <defs>
    <clipPath id="clip-path">
      <rect id="Rectangle_641" data-name="Rectangle 641" width="286.788" height="133.326" fill="none"/>
    </clipPath>
    <clipPath id="clip-path-2">
      <rect id="Rectangle_643" data-name="Rectangle 643" width="32.34" height="32.174" fill="none"/>
    </clipPath>
    <clipPath id="clip-path-4">
      <rect id="Rectangle_649" data-name="Rectangle 649" width="54.378" height="26.725" fill="none"/>
    </clipPath>
    <clipPath id="clip-path-5">
      <rect id="Rectangle_653" data-name="Rectangle 653" width="54.378" height="26.719" fill="none"/>
    </clipPath>
  </defs>
  <g id="building5" transform="translate(-1533.544 -1610.181)">
    <g id="Group_428" data-name="Group 428" transform="translate(1552.915 1632.936)" opacity="0.34" style="mix-blend-mode: multiply;isolation: isolate">
      <g id="Group_427" data-name="Group 427">
        <g id="Group_426" data-name="Group 426" clip-path="url(#clip-path)">
          <path id="Path_3228" data-name="Path 3228" d="M1526.31,1427.34v-27.67H1409.332v27.67h-77.984V1533h286.784V1427.34Z" transform="translate(-1331.35 -1399.671)"/>
        </g>
      </g>
    </g>
    <path id="Path_3229" data-name="Path 3229" d="M1509.709,1407.843v-27.676H1392.731v27.676h-77.984V1513.5h286.784V1407.843Z" transform="translate(218.798 230.014)" fill="#fff"/>
    <path id="Path_3230" data-name="Path 3230" d="M1497.6,1417.642v-28.378h-94.188v28.378h-79.163v80.208h263.861v-80.208Z" transform="translate(220.381 231.53)" fill="#dcdcdc"/>
    <g id="Group_431" data-name="Group 431" transform="translate(1747.7 1677.011)" opacity="0.34" style="mix-blend-mode: multiply;isolation: isolate">
      <g id="Group_430" data-name="Group 430">
        <g id="Group_429" data-name="Group 429" clip-path="url(#clip-path-2)">
          <rect id="Rectangle_642" data-name="Rectangle 642" width="32.341" height="32.174" transform="translate(0.001)"/>
        </g>
      </g>
    </g>
    <rect id="Rectangle_644" data-name="Rectangle 644" width="32.341" height="32.174" transform="translate(1743.909 1672.219)" fill="#b3b3b3"/>
    <path id="Path_3231" data-name="Path 3231" d="M1523.166,1437.605c0,.456-.742.826-1.651.826h-21.184c-.911,0-1.649-.37-1.649-.826v-.534c0-.456.738-.827,1.649-.827h21.184c.909,0,1.651.371,1.651.827Z" transform="translate(249.452 239.36)" fill="gray"/>
    <path id="Path_3232" data-name="Path 3232" d="M1523.166,1440.88c0,.456-.742.827-1.651.827h-21.184c-.911,0-1.649-.371-1.649-.827v-.534c0-.456.738-.82,1.649-.82h21.184c.909,0,1.651.364,1.651.82Z" transform="translate(249.452 239.907)" fill="gray"/>
    <path id="Path_3233" data-name="Path 3233" d="M1523.166,1444.156c0,.462-.742.827-1.651.827h-21.184c-.911,0-1.649-.365-1.649-.827v-.533c0-.45.738-.827,1.649-.827h21.184c.909,0,1.651.377,1.651.827Z" transform="translate(249.452 240.452)" fill="gray"/>
    <path id="Path_3234" data-name="Path 3234" d="M1523.166,1447.437c0,.456-.742.827-1.651.827h-21.184c-.911,0-1.649-.371-1.649-.827v-.533c0-.463.738-.827,1.649-.827h21.184c.909,0,1.651.364,1.651.827Z" transform="translate(249.452 240.999)" fill="gray"/>
    <path id="Path_3235" data-name="Path 3235" d="M1523.166,1450.713c0,.456-.742.827-1.651.827h-21.184c-.911,0-1.649-.371-1.649-.827v-.533c0-.463.738-.827,1.649-.827h21.184c.909,0,1.651.364,1.651.827Z" transform="translate(249.452 241.545)" fill="gray"/>
    <path id="Path_3236" data-name="Path 3236" d="M1523.166,1453.989c0,.456-.742.826-1.651.826h-21.184c-.911,0-1.649-.37-1.649-.826v-.534c0-.456.738-.827,1.649-.827h21.184c.909,0,1.651.371,1.651.827Z" transform="translate(249.452 242.091)" fill="gray"/>
    <path id="Path_3237" data-name="Path 3237" d="M1523.166,1457.263c0,.456-.742.827-1.651.827h-21.184c-.911,0-1.649-.371-1.649-.827v-.534c0-.456.738-.82,1.649-.82h21.184c.909,0,1.651.364,1.651.82Z" transform="translate(249.452 242.637)" fill="gray"/>
    <g id="Group_434" data-name="Group 434" transform="translate(1577.053 1677.011)" opacity="0.34" style="mix-blend-mode: multiply;isolation: isolate">
      <g id="Group_433" data-name="Group 433">
        <g id="Group_432" data-name="Group 432" clip-path="url(#clip-path-2)">
          <rect id="Rectangle_645" data-name="Rectangle 645" width="32.337" height="32.174" transform="translate(0.006)"/>
        </g>
      </g>
    </g>
    <rect id="Rectangle_647" data-name="Rectangle 647" width="32.341" height="32.174" transform="translate(1573.264 1672.219)" fill="#b3b3b3"/>
    <path id="Path_3238" data-name="Path 3238" d="M1376.9,1437.605c0,.456-.743.826-1.651.826h-21.188c-.908,0-1.65-.37-1.65-.826v-.534c0-.456.742-.827,1.65-.827h21.188c.908,0,1.651.371,1.651.827Z" transform="translate(225.075 239.36)" fill="gray"/>
    <path id="Path_3239" data-name="Path 3239" d="M1376.9,1440.88c0,.456-.743.827-1.651.827h-21.188c-.908,0-1.65-.371-1.65-.827v-.534c0-.456.742-.82,1.65-.82h21.188c.908,0,1.651.364,1.651.82Z" transform="translate(225.075 239.907)" fill="gray"/>
    <path id="Path_3240" data-name="Path 3240" d="M1376.9,1444.156c0,.462-.743.827-1.651.827h-21.188c-.908,0-1.65-.365-1.65-.827v-.533c0-.45.742-.827,1.65-.827h21.188c.908,0,1.651.377,1.651.827Z" transform="translate(225.075 240.452)" fill="gray"/>
    <path id="Path_3241" data-name="Path 3241" d="M1376.9,1447.437c0,.456-.743.827-1.651.827h-21.188c-.908,0-1.65-.371-1.65-.827v-.533c0-.463.742-.827,1.65-.827h21.188c.908,0,1.651.364,1.651.827Z" transform="translate(225.075 240.999)" fill="gray"/>
    <path id="Path_3242" data-name="Path 3242" d="M1376.9,1450.713c0,.456-.743.827-1.651.827h-21.188c-.908,0-1.65-.371-1.65-.827v-.533c0-.463.742-.827,1.65-.827h21.188c.908,0,1.651.364,1.651.827Z" transform="translate(225.075 241.545)" fill="gray"/>
    <path id="Path_3243" data-name="Path 3243" d="M1376.9,1453.989c0,.456-.743.826-1.651.826h-21.188c-.908,0-1.65-.37-1.65-.826v-.534c0-.456.742-.827,1.65-.827h21.188c.908,0,1.651.371,1.651.827Z" transform="translate(225.075 242.091)" fill="gray"/>
    <path id="Path_3244" data-name="Path 3244" d="M1376.9,1457.263c0,.456-.743.827-1.651.827h-21.188c-.908,0-1.65-.371-1.65-.827v-.534c0-.456.742-.82,1.65-.82h21.188c.908,0,1.651.364,1.651.82Z" transform="translate(225.075 242.637)" fill="gray"/>
    <g id="Group_437" data-name="Group 437" transform="translate(1648.172 1635.735)" opacity="0.34" style="mix-blend-mode: multiply;isolation: isolate">
      <g id="Group_436" data-name="Group 436">
        <g id="Group_435" data-name="Group 435" clip-path="url(#clip-path-4)">
          <rect id="Rectangle_648" data-name="Rectangle 648" width="54.38" height="26.725" transform="translate(-0.003)"/>
        </g>
      </g>
    </g>
    <rect id="Rectangle_650" data-name="Rectangle 650" width="54.387" height="26.725" transform="translate(1643.549 1632.168)" fill="#f2f2f2"/>
    <rect id="Rectangle_651" data-name="Rectangle 651" width="47.138" height="23.158" transform="translate(1647.176 1633.951)" fill="#999"/>
    <path id="Path_3245" data-name="Path 3245" d="M1433.233,1411.907a8.387,8.387,0,1,1-8.388-8.385,8.387,8.387,0,0,1,8.388,8.385" transform="translate(235.749 233.906)" fill="#b1b1b1"/>
    <path id="Path_3246" data-name="Path 3246" d="M1450.844,1411.907a8.387,8.387,0,1,1-8.386-8.385,8.387,8.387,0,0,1,8.386,8.385" transform="translate(238.684 233.906)" fill="#b1b1b1"/>
    <g id="Group_440" data-name="Group 440" transform="translate(1648.172 1685.214)" opacity="0.34" style="mix-blend-mode: multiply;isolation: isolate">
      <g id="Group_439" data-name="Group 439">
        <g id="Group_438" data-name="Group 438" clip-path="url(#clip-path-5)">
          <rect id="Rectangle_652" data-name="Rectangle 652" width="54.38" height="26.718" transform="translate(-0.003 0.001)"/>
        </g>
      </g>
    </g>
    <rect id="Rectangle_654" data-name="Rectangle 654" width="54.387" height="26.725" transform="translate(1643.549 1681.646)" fill="#f2f2f2"/>
    <rect id="Rectangle_655" data-name="Rectangle 655" width="47.138" height="23.158" transform="translate(1647.176 1683.43)" fill="#999"/>
    <path id="Path_3247" data-name="Path 3247" d="M1433.233,1454.317a8.387,8.387,0,1,1-8.388-8.385,8.381,8.381,0,0,1,8.388,8.385" transform="translate(235.749 240.974)" fill="#b1b1b1"/>
    <path id="Path_3248" data-name="Path 3248" d="M1450.844,1454.317a8.387,8.387,0,1,1-8.386-8.385,8.381,8.381,0,0,1,8.386,8.385" transform="translate(238.684 240.974)" fill="#b1b1b1"/>
  </g>
</svg>
