<svg xmlns="http://www.w3.org/2000/svg" width="50" height="87.327" viewBox="0 0 50 87.327">
  <g id="Group_740" data-name="Group 740" transform="translate(0 0)">
    <path id="Path_6185" data-name="Path 6185" d="M.034,66.4,0,66.383v37.372H0L.244,104,25.38,86.809.213,66.218Z" transform="translate(0 -41.428)" fill="#ecca00"/>
    <path id="Path_6186" data-name="Path 6186" d="M.652,138.843,25.41,163.6V121.913Z" transform="translate(-0.408 -76.274)" fill="#e1b600"/>
    <path id="Path_6187" data-name="Path 6187" d="M25.358,0,.569,24.789,25.358,45.071Z" transform="translate(-0.356 0)" fill="#ffe500"/>
    <path id="Path_6188" data-name="Path 6188" d="M65.767,86.809,90.9,104l.242-.242h0V66.383l-.034.014-.179-.179Z" transform="translate(-41.147 -41.429)" fill="#ecae00"/>
    <path id="Path_6189" data-name="Path 6189" d="M66.776,163.6l24.758-24.758-24.758-16.93Z" transform="translate(-41.778 -76.274)" fill="#ffc100"/>
    <path id="Path_6190" data-name="Path 6190" d="M66.776,0V45.071L91.565,24.789Z" transform="translate(-41.778 0)" fill="#cd9c00"/>
    <path id="Path_6191" data-name="Path 6191" d="M58.5,73.564l-.087-.087L46.365,61.434v0h0v0L34.319,73.478l-.087.087-.016-.007v.29l-.069,18.58h0l.118.118,12.028,12.029v0h0v0L58.324,92.547l.118-.118h0l.069-18.58v-.29Z" transform="translate(-21.364 -38.434)" fill="#ffd300"/>
  </g>
</svg>
