<svg id="Group_1258" data-name="Group 1258" xmlns="http://www.w3.org/2000/svg" xmlns:xlink="http://www.w3.org/1999/xlink" width="179.191" height="200.488" viewBox="0 0 179.191 200.488">
  <defs>
    <clipPath id="clip-path">
      <rect id="Rectangle_1584" data-name="Rectangle 1584" width="179.191" height="200.488" fill="none"/>
    </clipPath>
    <clipPath id="clip-path-2">
      <rect id="Rectangle_1583" data-name="Rectangle 1583" width="179.19" height="200.488" fill="none"/>
    </clipPath>
    <clipPath id="clip-path-3">
      <rect id="Rectangle_1582" data-name="Rectangle 1582" width="153.364" height="162.265" fill="none"/>
    </clipPath>
  </defs>
  <g id="Group_1263" data-name="Group 1263" clip-path="url(#clip-path)">
    <g id="Group_1262" data-name="Group 1262" transform="translate(0 0)">
      <g id="Group_1261" data-name="Group 1261" clip-path="url(#clip-path-2)">
        <g id="Group_1260" data-name="Group 1260" transform="translate(25.826 38.223)" opacity="0.21" style="mix-blend-mode: multiply;isolation: isolate">
          <g id="Group_1259" data-name="Group 1259">
            <g id="Group_1258-2" data-name="Group 1258" clip-path="url(#clip-path-3)">
              <path id="Path_8903" data-name="Path 8903" d="M166.048,111.326c2.429-5.226,1.083-10.057-4.02-14.353A22.834,22.834,0,0,0,151.216,91.8c3.828-4.072,6.657-8.456,7.787-12.666,1.866-6.928-.828-12.545-7.988-16.705a28.423,28.423,0,0,0-14.379-4,29.593,29.593,0,0,0-10.946,2.147,23.112,23.112,0,0,0-2.347,1.415,17.6,17.6,0,0,0-4.05-.863c-.807-.078-1.618-.116-2.414-.116a22.513,22.513,0,0,0-5.241.677c-.177-.654-.319-1.336-.563-1.987-3.109-7.893-8.283-14.336-15.678-14.336a18.111,18.111,0,0,0-9.289,2.975A27.822,27.822,0,0,0,73.675,63.833a1.256,1.256,0,0,0-.218-.032L25.916,20.509,13.857,33.753,58.61,74.5a17.807,17.807,0,0,0,1.072,5.737,31.072,31.072,0,0,0-8.04-1.174c-6.042,0-13.567,2.432-15.065,14.008a28.125,28.125,0,0,0,6.933,22.777c.352.406.721.805,1.1,1.2.526.455,1.081.818,1.633,1.213a18.283,18.283,0,0,0,.6,2.714c.1.322.25.624.363.941-.427.235-.837.453-1.249.723-4.024,2.22-7.259,5.019-9.064,8.387-2.507,4.691-1.871,9.919,1.882,15.555a28.366,28.366,0,0,0,21.458,12.773c-1.385,3.191-2.039,6.255-1.566,8.5.639,3.021,3.146,4.253,7.463,3.655a18.644,18.644,0,0,0,2-.378c1.211,5.3,4.946,10.13,14.28,10.862a28.063,28.063,0,0,0,19.922-5.949c.453-.384.895-.822,1.336-1.273,3.344,4.71,7.655,8.009,12.856,8.009,3.239,0,6.641-1.3,10.115-3.864a28.393,28.393,0,0,0,10.208-13.865,13.722,13.722,0,0,0,2.095.473c4.462.6,7.733-1.53,9.749-6.324a18.177,18.177,0,0,0,1.457-7.328c6.121,0,13.691-2.464,15.106-14.128a28.064,28.064,0,0,0-4.611-19.529,22.507,22.507,0,0,0,5.407-6.885" transform="translate(-13.857 -20.507)"/>
            </g>
          </g>
        </g>
        <path id="Path_8904" data-name="Path 8904" d="M145.631,73.528c2.716-5.83,1.211-11.213-4.471-16A25.442,25.442,0,0,0,129.1,51.765c4.259-4.54,7.414-9.433,8.674-14.129,2.08-7.712-.921-13.973-8.9-18.612a31.6,31.6,0,0,0-16.027-4.456,33.145,33.145,0,0,0-12.2,2.382c-6.583,3.5-11.544,9.252-15.2,15.522a31.138,31.138,0,0,0-1.087-16.485C80.892,7.189,75.13,0,66.879,0A20.14,20.14,0,0,0,56.535,3.319,31.031,31.031,0,0,0,42.67,20.584a20.866,20.866,0,0,0-9.006-.473c-4.911,1.036-7.556,4.488-7.88,10.277a19.951,19.951,0,0,0,1.292,8.48,34.751,34.751,0,0,0-8.961-1.31c-6.739,0-15.128,2.71-16.793,15.622A31.35,31.35,0,0,0,9.04,78.562c.4.457.811.895,1.238,1.334a23.241,23.241,0,0,0,6.039,3.823,35.006,35.006,0,0,0-4.546,2.408c-4.482,2.475-8.087,5.6-10.094,9.356-2.8,5.226-2.089,11.056,2.1,17.333a31.613,31.613,0,0,0,23.916,14.237c-1.545,3.562-2.274,6.972-1.748,9.47.712,3.37,3.511,4.743,8.316,4.078a20.988,20.988,0,0,0,2.229-.418c1.353,5.9,5.513,11.285,15.915,12.1a31.29,31.29,0,0,0,22.211-6.624c.5-.438,1-.923,1.48-1.426,3.735,5.252,8.54,8.929,14.333,8.929,3.619,0,7.41-1.452,11.276-4.311A31.635,31.635,0,0,0,113.082,133.4a14.917,14.917,0,0,0,2.335.526c4.973.671,8.622-1.7,10.87-7.047a20.216,20.216,0,0,0,1.621-8.163c6.823-.011,15.263-2.751,16.837-15.747A31.27,31.27,0,0,0,139.609,81.2a25.192,25.192,0,0,0,6.022-7.675" transform="translate(0 0)" fill="#005e05"/>
        <path id="Path_8905" data-name="Path 8905" d="M127.754,64.555c-3.3-10.344-11.928-16.9-23.426-18.01a20.79,20.79,0,0,0-14.129,4.5,88.075,88.075,0,0,0,4.482-8.888c2.812-6.833,5.714-12.277,6-18.144.285-6.037-1.67-13.458-12.653-14.523-.9-.089-1.8-.13-2.688-.13-11.1,0-19.331,6.984-23.782,15.9-.308.982-.578,1.935-.822,2.867-.447-.583-.91-1.144-1.389-1.69-5.075-6.6-11.431-11.494-17.587-11.494-4.1,0-7.712,2.257-10.739,6.719-7.556,11.125-2.548,28.764,2.969,31.794,3.776,2.512,7.073,4.6,9.964,6.341-5.668-1.327-10.816-2.33-13.427-2.7-.88-.045-1.748-.073-2.609-.073-9.127,0-16.221,2.522-19.456,6.917-2.33,3.163-2.73,7.287-1.191,12.247A25.254,25.254,0,0,0,25.754,93.526a18.7,18.7,0,0,0,2.924-.171c-3.236,3.394-5.627,7.021-6.616,10.51-1.674,5.9.563,10.8,6.652,14.554a24.832,24.832,0,0,0,13.214,3.875,27.816,27.816,0,0,0,14.243-4.123c.6-.479,1.17-.984,1.722-1.51,1.17,6.315,4.41,15.128,13.36,15.128a17.97,17.97,0,0,0,6.147-1.211,24.506,24.506,0,0,0,13.77-11.861c.043-.74.084-1.469.116-2.179a18.273,18.273,0,0,0,9.4,3.04c4.555,0,8.309-2.594,11.138-7.722,4.557-8.253,3.262-19.948-.712-25.97q-1.216-1.171-2.367-2.2c.3.035.6.078.9.108,7.951-.462,14.062-2.926,16.994-6.941,2.324-3.189,2.7-7.323,1.118-12.294" transform="translate(5.49 8.084)" fill="#2c8805"/>
        <path id="Path_8906" data-name="Path 8906" d="M92.7,63.1a61.9,61.9,0,0,0-4.857-4.067c3.931-1.918,7.135-4.482,8.486-7.457,1.379-3.027.677-6.162-2.074-9.319a16.766,16.766,0,0,0-12.965-5.912,23.63,23.63,0,0,0-14.847,5.683,81.388,81.388,0,0,0,.813-11.809c-.276-3.75-1.711-12.471-9.071-12.471a12.552,12.552,0,0,0-3.806.66C47.023,20.788,42.55,30.45,41.407,37.767c-3.834-2.246-7.848-3.631-11.192-3.631-4.656,0-7.5,2.581-8.465,7.666a16.821,16.821,0,0,0,3.664,14.239c1.2,1.446,5.316,4.65,8.883,7.181C27.8,65,21.75,68.454,19.705,72.911c-1.377,3.01-.7,6.141,2.022,9.308a16.768,16.768,0,0,0,13.063,6.013c.511,0,2.867-.285,5.148-.583a20.868,20.868,0,0,0-1.267,5.591c-.281,3.854.878,8.668,7.992,9.7a18.8,18.8,0,0,0,2.678.2c4.8,0,11.244-5.1,15.332-9.418,2.537,3.892,5.8,6.689,9.412,6.689,2.153,0,4.317-1.025,6.432-3.038a20.13,20.13,0,0,0,5.632-12.73,16.917,16.917,0,0,0,1.961.125c5.4,0,8.415-2.85,8.95-8.465A16.734,16.734,0,0,0,92.7,63.1" transform="translate(16.422 15.334)" fill="#369d01"/>
        <path id="Path_8907" data-name="Path 8907" d="M45.1,35.321c.5.229,2,1.2,3.053,1.914a9.907,9.907,0,0,1,2.548-5.9c1.4-1.275,3.213-1.446,5.4-.505a9.558,9.558,0,0,1,5.476,5.981,13.459,13.459,0,0,1-.479,9.028,46.65,46.65,0,0,1,6.246-2.507c2.08-.511,7.053-1.258,8.337,2.725a7.014,7.014,0,0,1,.311,2.173c0,4.4-4.441,8.514-8.206,10.411a13.315,13.315,0,0,1,3.927,5.424c.816,2.516-.084,4.508-2.667,5.923A9.572,9.572,0,0,1,60.7,70.5a36.953,36.953,0,0,1-5.444-3.552c.183,3.826-.63,7.7-2.684,9.595-1.389,1.273-3.2,1.456-5.386.535a9.541,9.541,0,0,1-5.548-6.016c-.089-.276-.349-1.6-.583-2.891a12.021,12.021,0,0,1-2.8,1.668c-2.039.828-4.846,1.04-6.652-2.626a11.212,11.212,0,0,1-.576-1.415c-.842-2.6.79-6.978,2.408-9.947-2.544-.691-4.63-1.972-5.258-3.921a5.387,5.387,0,0,1,.509-4.02,11.491,11.491,0,0,1,5.908-5.273,8.293,8.293,0,0,1-.41-1.04c-.947-2.919.067-5.049,3.016-6.324a9.514,9.514,0,0,1,7.9.047" transform="translate(24.166 26.117)" fill="#8cbe1f"/>
        <path id="Path_8908" data-name="Path 8908" d="M70.328,18.127c3.834,0,.039-3.474-1.161-1.083-1.275-2.043-3.545-2.9-1.448-.535-3.3-1.383-1.994.613.766,1.036-1.3,2.932-1.3,2.339.839,1.293,1.148,3.463,1.569,3.058.36-.212,2.5,4.175,3.53,4.03.5.015,4.607,3.64,3.582,1.461.186-.6-.013.026-.026.052-.039.084" transform="translate(56.806 13.03)" fill="#62a400"/>
        <path id="Path_8909" data-name="Path 8909" d="M64.612,13.721c3.834,0,.047-3.474-1.154-1.083C62.178,10.6,59.906,9.748,62,12.109c-3.3-1.379-1.992.613.764,1.029-1.29,2.934-1.29,2.347.846,1.3,1.144,3.463,1.566,3.057.354-.214,2.507,4.171,3.532,4.031.5.017,4.6,3.64,3.582,1.461.186-.6-.015.026-.026.052-.041.078" transform="translate(51.871 9.229)" fill="#62a400"/>
        <path id="Path_8910" data-name="Path 8910" d="M77.034,35.264c3.824,0,.039-3.474-1.161-1.083-1.28-2.043-3.552-2.9-1.45-.535-3.3-1.377-1.992.613.759,1.036-1.292,2.932-1.292,2.339.848,1.293,1.148,3.459,1.564,3.058.36-.212,2.494,4.169,3.524,4.035.5.015,4.6,3.642,3.575,1.467.183-.6a.7.7,0,0,0-.037.084" transform="translate(62.598 27.833)" fill="#62a400"/>
        <path id="Path_8911" data-name="Path 8911" d="M66.088,48.137c-2.278,3.094,2.809,2.184,1.566-.265,2.429.227,4.473-1.077,1.3-.842,3.083-1.815.686-1.987-1.3-.021-1.633-2.855-1.148-2.5-1.56-.119-3.5-1.217-3.431-.63-.037.416-4.9-.557-5.392.363-.311.4-5.7,1.472-3.318,1.987.384.52-.009-.026-.03-.052-.041-.084" transform="translate(53.687 38.859)" fill="#005e05"/>
        <path id="Path_8912" data-name="Path 8912" d="M60.827,65.676c-.889,3.729,3.37.848,1.321-.874,2.283-.768,3.64-2.781.852-1.288,2.112-2.893-.129-2.08-1.18.5-2.548-1.94-1.976-1.8-1.456.52-3.631.319-3.34.816.129.4-4.643,1.471-4.741,2.5-.134.483-4.607,3.634-2.251,3.14.54.317-.021-.021-.047-.035-.073-.058" transform="translate(49.198 53.281)" fill="#005e05"/>
        <path id="Path_8913" data-name="Path 8913" d="M70.07,37.348c3.828.006.043-3.469-1.159-1.077-1.28-2.043-3.547-2.9-1.45-.535-3.3-1.379-1.992.608.764,1.029-1.3,2.939-1.29,2.347.842,1.3,1.148,3.459,1.569,3.058.358-.218,2.5,4.175,3.532,4.035.5.021,4.6,3.64,3.578,1.467.183-.6a.5.5,0,0,1-.037.078" transform="translate(56.585 29.638)" fill="#005e05"/>
        <path id="Path_8914" data-name="Path 8914" d="M53.928,31.178c3.681-1.072-.932-3.349-1.415-.718-1.795-1.6-4.218-1.789-1.539-.1-3.552-.4-1.743,1.144,1.019.775-.421,3.183-.583,2.615,1.17,1.014,2.069,3,2.365,2.5.285-.306,3.573,3.306,4.52,2.88.483-.125,5.44,2.2,3.849.4.011-.63-.006.03-.011.062-.015.093" transform="translate(42.327 25.199)" fill="#005e05"/>
        <path id="Path_8915" data-name="Path 8915" d="M43.232,23.02c3.834.006.052-3.469-1.148-1.077-1.28-2.043-3.552-2.894-1.452-.54-3.3-1.372-2,.615.76,1.036-1.292,2.937-1.292,2.345.841,1.3,1.15,3.459,1.571,3.058.36-.212,2.5,4.169,3.532,4.03.5.009,4.607,3.647,3.578,1.467.181-.6a.337.337,0,0,1-.041.082" transform="translate(33.407 17.262)" fill="#005e05"/>
        <path id="Path_8916" data-name="Path 8916" d="M53.257,14.616c-3.649,1.17,1.019,3.318,1.431.677,1.84,1.554,4.259,1.668,1.543.058,3.562.311,1.711-1.187-1.046-.744.334-3.189.516-2.628-1.2-.978-2.153-2.943-2.427-2.434-.274.311-3.662-3.2-4.6-2.76-.485.14-5.5-2.058-3.852-.3.017.624a.482.482,0,0,1,.009-.088" transform="translate(42.93 10.055)" fill="#005e05"/>
        <path id="Path_8917" data-name="Path 8917" d="M48.424,13.771c-3.647,1.17,1.018,3.318,1.433.675,1.836,1.551,4.259,1.67,1.547.063,3.556.3,1.709-1.191-1.047-.749.335-3.187.516-2.626-1.195-.977-2.155-2.943-2.436-2.434-.276.311-3.662-3.208-4.6-2.757-.485.14-5.5-2.059-3.858-.3.013.624a.379.379,0,0,1,.009-.088" transform="translate(38.757 9.325)" fill="#005e05"/>
        <path id="Path_8918" data-name="Path 8918" d="M54.583,22.946c-3.649,1.17,1.019,3.323,1.431.677,1.834,1.554,4.264,1.674,1.543.067,3.562.3,1.717-1.191-1.04-.749.334-3.187.514-2.626-1.2-.977-2.149-2.943-2.429-2.434-.276.311-3.662-3.209-4.6-2.762-.479.134-5.5-2.059-3.858-.294.006.63.006-.032.006-.056.015-.093" transform="translate(44.078 17.254)" fill="#005e05"/>
        <path id="Path_8919" data-name="Path 8919" d="M24.688,37.823c-1.929-3.312-3.027,1.705-.358,1.545-1.124,2.127-.719,4.518.27,1.523.462,3.547,1.528,1.415.509-1.18,3.189-.36,2.673-.058.691-1.379,2.419-2.734,1.868-2.891-.358-.2,2.35-4.264,1.711-5.077-.24-.436.839-5.815-.529-3.839-.613.14a.594.594,0,0,1,.1-.011" transform="translate(19.645 29.411)" fill="#005e05"/>
        <path id="Path_8920" data-name="Path 8920" d="M27.774,21.091c3.834,0,.047-3.474-1.154-1.083-1.275-2.043-3.552-2.894-1.452-.535-3.3-1.377-1.991.613.76,1.029-1.29,2.939-1.29,2.347.846,1.3,1.15,3.465,1.571,3.064.36-.212,2.5,4.175,3.53,4.03.5.015,4.6,3.64,3.577,1.467.181-.6-.015.026-.021.052-.041.084" transform="translate(20.054 15.592)" fill="#005e05"/>
        <path id="Path_8921" data-name="Path 8921" d="M24.755,25.075c3.834,0,.047-3.469-1.154-1.083-1.275-2.037-3.552-2.891-1.45-.535-3.3-1.377-2,.613.764,1.036-1.3,2.937-1.292,2.339.837,1.3,1.148,3.459,1.569,3.058.363-.218,2.5,4.175,3.532,4.035.5.015,4.6,3.646,3.578,1.467.183-.6-.017.03-.026.056-.043.082" transform="translate(17.446 19.035)" fill="#005e05"/>
        <path id="Path_8922" data-name="Path 8922" d="M18.31,38.052c2.524-2.887-2.589-2.309-1.569.166-2.382-.378-4.514.775-1.359.744-3.2,1.582-.846,1.9,1.286.1,1.362,2.9.919,2.518,1.528.218,3.364,1.405,3.338.828.073-.41,4.79.854,5.36-.015.337-.369,5.772-1.077,3.459-1.743-.328-.531a.821.821,0,0,1,.032.084" transform="translate(11.915 31.195)" fill="#005e05"/>
        <path id="Path_8923" data-name="Path 8923" d="M11.74,49.686c-3.817.317.244,3.463,1.243.978,1.444,1.929,3.78,2.589,1.493.41,3.405,1.1,1.938-.773-.848-.967,1.04-3.032,1.092-2.44-.947-1.217-1.435-3.349-1.825-2.922-.337.24-2.85-3.949-3.86-3.718-.5.03-4.894-3.245-3.692-1.159-.13.613a.446.446,0,0,1,.026-.088" transform="translate(7.425 39.957)" fill="#005e05"/>
        <path id="Path_8924" data-name="Path 8924" d="M20.369,57.545c-1.769-3.4-3.105,1.566-.427,1.525-1.223,2.074-.936,4.482.2,1.534.3,3.562,1.461,1.487.561-1.15,3.2-.212,2.673.063.764-1.348,2.538-2.62,1.987-2.8-.352-.218,2.542-4.149,1.944-5-.218-.453,1.1-5.761-.354-3.852-.619.116a.482.482,0,0,1,.093-.006" transform="translate(15.916 46.477)" fill="#005e05"/>
        <path id="Path_8925" data-name="Path 8925" d="M18.3,63.081c-3.2-2.127-1.961,2.866.36,1.534-.063,2.408,1.362,4.372.921,1.249,1.979,2.973,2,.593-.069-1.28,2.7-1.731,2.373-1.238.011-1.549.956-3.517.384-3.416-.41-.017.218-4.861-.714-5.314-.412-.291-1.821-5.58-2.168-3.2-.483.4.026-.015.05-.026.082-.041" transform="translate(14.142 51.102)" fill="#005e05"/>
        <path id="Path_8926" data-name="Path 8926" d="M26.011,68.95c-2.917,2.492,2.22,2.667,1.58.067,2.294.723,4.577-.108,1.452-.535,3.4-1.1,1.118-1.763-1.252-.291-.926-3.07-.546-2.62-1.489-.438-3.114-1.882-3.176-1.3-.13.4-4.617-1.545-5.3-.77-.39.311-5.865.229-3.67,1.219.25.578a.346.346,0,0,1-.021-.088" transform="translate(19.16 57.012)" fill="#005e05"/>
        <path id="Path_8927" data-name="Path 8927" d="M37.055,69.13c-3.634-1.223-1.15,3.277.749,1.394.567,2.339,2.443,3.869,1.211.967,2.684,2.356,2.086.052-.4-1.223,2.158-2.371,1.972-1.815-.386-1.5.011-3.64-.514-3.4-.4.093-1.051-4.753-2.065-4.95-.468-.177-3.208-4.919-2.934-2.527-.365.509.017-.021.043-.041.063-.062" transform="translate(30.239 56.317)" fill="#005e05"/>
        <path id="Path_8928" data-name="Path 8928" d="M43.588,72.728c-3.536,1.482,1.3,3.219,1.482.546,1.966,1.389,4.389,1.293,1.545-.073,3.577-.006,1.6-1.331-1.109-.65.058-3.213.281-2.661-1.279-.872-2.4-2.747-2.632-2.21-.244.337-3.927-2.876-4.82-2.347-.468.181-5.658-1.575-3.869.037.062.619a.469.469,0,0,1,.011-.088" transform="translate(34.48 60.334)" fill="#005e05"/>
        <path id="Path_8929" data-name="Path 8929" d="M48.507,68.483c1.42,0,.021-1.279-.427-.4-.468-.755-1.3-1.072-.535-.2-1.217-.5-.734.229.28.384-.473,1.083-.473.865.313.479.427,1.28.582,1.135.136-.078.924,1.539,1.3,1.487.186.006,1.694,1.342,1.321.54.062-.218a.073.073,0,0,1-.015.026" transform="translate(40.446 58.187)" fill="#005e05"/>
        <path id="Path_8930" data-name="Path 8930" d="M38.893,71.862c1.42.006.02-1.28-.421-.4-.473-.755-1.316-1.066-.535-.192-1.217-.514-.74.224.28.378-.477,1.083-.477.865.313.479.421,1.28.576,1.129.129-.078.921,1.539,1.307,1.487.183.006,1.7,1.348,1.327.54.067-.224,0,.011,0,.022-.015.032" transform="translate(32.145 61.104)" fill="#005e05"/>
        <path id="Path_8931" data-name="Path 8931" d="M61.232,66.386c1.415,0,.021-1.284-.427-.4-.473-.755-1.3-1.072-.535-.2-1.217-.511-.734.229.285.386-.479,1.081-.479.863.308.477.427,1.28.576,1.128.134-.082.921,1.543,1.307,1.491.183.009,1.7,1.342,1.327.542.067-.224l-.015.032" transform="translate(51.439 56.372)" fill="#005e05"/>
        <path id="Path_8932" data-name="Path 8932" d="M64.508,61.455c1.42.006.021-1.284-.421-.4-.473-.753-1.316-1.066-.535-.192-1.223-.509-.744.224.28.38-.477,1.081-.477.869.313.479.421,1.279.578,1.128.129-.078.926,1.539,1.307,1.485.183.006,1.7,1.346,1.327.54.073-.226-.009.011-.009.022-.021.032" transform="translate(54.269 52.115)" fill="#005e05"/>
        <path id="Path_8933" data-name="Path 8933" d="M68.038,44.691c1.415,0,.015-1.279-.427-.4-.473-.749-1.31-1.066-.535-.192-1.217-.509-.74.224.28.38-.477,1.081-.477.863.313.477.421,1.28.582,1.129.129-.076.926,1.538,1.307,1.485.188,0,1.7,1.342,1.321.537.067-.218-.006.006-.006.017-.015.026" transform="translate(57.316 37.636)" fill="#005e05"/>
        <path id="Path_8934" data-name="Path 8934" d="M52.583,24.763c1.409,0,.009-1.28-.432-.4-.468-.755-1.3-1.072-.535-.2-1.217-.511-.734.224.285.38-.477,1.087-.477.869.313.477.421,1.28.576,1.135.13-.076.924,1.538,1.3,1.485.186,0,1.694,1.351,1.316.544.062-.214l-.009.026" transform="translate(43.963 20.423)" fill="#005e05"/>
        <path id="Path_8935" data-name="Path 8935" d="M42.192,25.008c1.42,0,.017-1.28-.427-.4-.468-.755-1.31-1.072-.535-.2-1.217-.509-.732.229.281.386-.473,1.081-.473.863.311.477.427,1.28.578,1.129.13-.082.926,1.538,1.3,1.491.186.009,1.7,1.342,1.321.542.069-.224l-.017.032" transform="translate(34.993 20.63)" fill="#005e05"/>
        <path id="Path_8936" data-name="Path 8936" d="M30.118,29.718c1.415,0,.009-1.284-.432-.4-.468-.755-1.3-1.07-.535-.2-1.217-.509-.729.229.285.384-.477,1.083-.477.865.313.479.421,1.28.578,1.129.13-.078.924,1.539,1.3,1.487.186.006,1.7,1.342,1.321.541.062-.224a.2.2,0,0,1-.009.032" transform="translate(24.56 24.699)" fill="#005e05"/>
        <path id="Path_8937" data-name="Path 8937" d="M22.627,31.527c1.415,0,.015-1.279-.427-.4-.468-.755-1.31-1.072-.535-.2-1.217-.509-.734.224.285.38-.479,1.087-.479.863.308.479.421,1.279.582,1.128.13-.078.924,1.538,1.3,1.485.186.006,1.7,1.34,1.321.539.067-.22l-.015.026" transform="translate(18.093 26.265)" fill="#005e05"/>
        <path id="Path_8938" data-name="Path 8938" d="M22.753,49.282c1.415,0,.011-1.284-.427-.4-.472-.749-1.316-1.072-.541-.2-1.217-.5-.732.229.287.386-.479,1.081-.479.863.311.473.421,1.279.578,1.131.13-.078.921,1.543,1.3,1.491.181.009,1.7,1.348,1.327.541.069-.218l-.011.026" transform="translate(18.197 41.598)" fill="#005e05"/>
        <path id="Path_8939" data-name="Path 8939" d="M14.1,51.053c1.42.006.021-1.284-.421-.4-.473-.76-1.31-1.072-.535-.2-1.217-.505-.74.229.28.386-.479,1.081-.479.863.308.477.427,1.28.582,1.129.136-.076.919,1.538,1.3,1.485.181,0,1.705,1.342,1.327.542.067-.224a.083.083,0,0,1-.015.032" transform="translate(10.729 43.13)" fill="#005e05"/>
        <path id="Path_8940" data-name="Path 8940" d="M9.9,41.022c1.42.006.021-1.28-.421-.4-.473-.755-1.31-1.072-.537-.2-1.217-.5-.738.229.281.386-.479,1.081-.479.863.313.477.421,1.28.576,1.133.129-.076.921,1.538,1.307,1.485.183,0,1.705,1.348,1.327.541.067-.218a.073.073,0,0,1-.015.026" transform="translate(7.104 34.467)" fill="#005e05"/>
        <path id="Path_8941" data-name="Path 8941" d="M55.928,67.2c-3.828.171.114,3.469,1.2,1.031,1.372,1.976,3.681,2.725,1.476.462,3.359,1.226,1.964-.7-.813-.993,1.161-3,1.187-2.4-.9-1.258-1.307-3.4-1.705-2.986-.349.229-2.693-4.052-3.713-3.869-.5.006-4.769-3.422-3.646-1.3-.157.608a.551.551,0,0,1,.037-.084" transform="translate(45.661 55.028)" fill="#005e05"/>
        <path id="Path_8942" data-name="Path 8942" d="M63.444,57.13c3.832.006.041-3.469-1.159-1.081-1.275-2.039-3.547-2.893-1.452-.531-3.3-1.379-2,.609.77,1.031-1.3,2.932-1.3,2.345.837,1.3,1.15,3.459,1.571,3.058.36-.218,2.5,4.177,3.53,4.035.5.015,4.607,3.646,3.577,1.467.183-.593-.011.026-.028.052-.037.078" transform="translate(50.86 46.725)" fill="#005e05"/>
        <path id="Path_8943" data-name="Path 8943" d="M57.867,50.149c3.836.006.052-3.469-1.157-1.077-1.273-2.043-3.545-2.894-1.443-.535-3.3-1.377-2,.609.757,1.036-1.288,2.932-1.288,2.339.842,1.293,1.154,3.459,1.573,3.058.36-.218,2.5,4.175,3.532,4.035.5.021,4.605,3.64,3.58,1.467.181-.6a.4.4,0,0,1-.041.078" transform="translate(46.049 40.696)" fill="#127b07"/>
        <path id="Path_8944" data-name="Path 8944" d="M60.3,46.717c3.838.006.047-3.469-1.154-1.075C57.876,43.6,55.6,42.745,57.7,45.1c-3.291-1.377-1.991.615.764,1.034-1.3,2.934-1.29,2.347.842,1.3,1.15,3.465,1.571,3.058.36-.212,2.5,4.171,3.53,4.035.5.015,4.607,3.64,3.582,1.461.183-.6a.638.638,0,0,1-.043.078" transform="translate(48.155 37.731)" fill="#127b07"/>
        <path id="Path_8945" data-name="Path 8945" d="M58.132,37c1.715,3.433,3.126-1.513.453-1.513,1.252-2.058,1-4.471-.177-1.539-.239-3.567-1.435-1.508-.583,1.144-3.2.157-2.667-.1-.779,1.336-2.579,2.574-2.033,2.771.352.224-2.609,4.11-2.028,4.961.214.453-1.2,5.746.285,3.864.613-.1a.261.261,0,0,1-.093,0" transform="translate(47.806 27.675)" fill="#127b07"/>
        <path id="Path_8946" data-name="Path 8946" d="M37.319,27.487c3.834.009.041-3.469-1.159-1.081-1.275-2.039-3.547-2.893-1.45-.531-3.3-1.377-1.992.613.764,1.036-1.292,2.932-1.292,2.345.846,1.293,1.144,3.463,1.566,3.057.354-.212,2.5,4.169,3.532,4.035.5.015,4.6,3.64,3.582,1.467.186-.6-.015.026-.026.052-.041.078" transform="translate(28.295 21.12)" fill="#127b07"/>
        <path id="Path_8947" data-name="Path 8947" d="M27.542,47.346c3.834.006.043-3.469-1.159-1.075-1.28-2.05-3.547-2.9-1.45-.542-3.3-1.372-1.992.615.764,1.034-1.3,2.939-1.3,2.347.841,1.3,1.15,3.459,1.571,3.058.36-.212,2.5,4.171,3.532,4.03.5.009,4.6,3.646,3.582,1.467.183-.6a.549.549,0,0,1-.037.082" transform="translate(19.85 38.272)" fill="#127b07"/>
        <path id="Path_8948" data-name="Path 8948" d="M37.8,58.455c3.839.006.047-3.469-1.148-1.075-1.28-2.045-3.552-2.9-1.457-.537-3.3-1.377-1.991.609.766,1.031-1.3,2.937-1.292,2.345.841,1.3,1.15,3.459,1.571,3.058.36-.212,2.507,4.171,3.532,4.031.5.009,4.6,3.646,3.582,1.469.186-.593-.015.028-.03.052-.047.078" transform="translate(28.716 47.871)" fill="#127b07"/>
        <path id="Path_8949" data-name="Path 8949" d="M52.662,57.247c3.832.006.043-3.469-1.156-1.075-1.279-2.045-3.551-2.9-1.456-.537-3.3-1.383-1.991.613.764,1.031-1.293,2.937-1.293,2.345.842,1.3,1.15,3.459,1.566,3.058.36-.214,2.5,4.173,3.526,4.037.5.017,4.6,3.64,3.577,1.461.183-.6a.746.746,0,0,1-.037.078" transform="translate(41.548 46.827)" fill="#127b07"/>
        <path id="Path_8950" data-name="Path 8950" d="M24.258,53.781c-2.46-.009-.032,2.225.744.691.822,1.31,2.283,1.856.93.339,2.117.883,1.286-.39-.488-.662.833-1.882.833-1.508-.541-.831-.738-2.225-1-1.966-.229.134-1.612-2.676-2.278-2.594-.322-.009-2.958-2.341-2.3-.941-.119.384.006-.015.022-.035.026-.047" transform="translate(19.312 44.463)" fill="#127b07"/>
        <path id="Path_8951" data-name="Path 8951" d="M20.139,41.4c-2.464-.011-.037,2.231.738.691.828,1.316,2.279,1.862.936.337,2.117.885,1.28-.384-.494-.654.833-1.888.833-1.513-.546-.839-.738-2.225-1-1.964-.227.142-1.6-2.684-2.272-2.594-.319-.017-2.958-2.339-2.3-.941-.119.386.011-.009.017-.037.032-.047" transform="translate(15.75 33.769)" fill="#127b07"/>
        <path id="Path_8952" data-name="Path 8952" d="M30.643,18.332c-2.466-.011-.032,2.231.744.691.822,1.316,2.278,1.856.93.337,2.117.885,1.279-.39-.494-.654.833-1.888.833-1.508-.54-.839-.732-2.229-1-1.964-.229.136-1.607-2.678-2.272-2.594-.322-.011-2.954-2.339-2.3-.939-.114.386a.1.1,0,0,1,.026-.047" transform="translate(24.825 13.842)" fill="#127b07"/>
        <path id="Path_8953" data-name="Path 8953" d="M43.2,14.463c-2.464-.006-.032,2.237.744.691.822,1.316,2.274,1.868.932.343,2.115.889,1.279-.39-.5-.654.833-1.888.833-1.513-.546-.839-.738-2.225-1-1.964-.227.136-1.6-2.684-2.266-2.594-.322-.011-2.954-2.345-2.294-.941-.11.386.006-.011.017-.037.026-.052" transform="translate(35.675 10.504)" fill="#127b07"/>
        <path id="Path_8954" data-name="Path 8954" d="M68.445,13.5c-2.466-.011-.032,2.231.744.7.822,1.31,2.278,1.856.93.337,2.117.883,1.284-.39-.494-.66.833-1.884.833-1.508-.54-.833-.738-2.231-1-1.964-.229.136-1.607-2.678-2.272-2.594-.322-.011-2.96-2.345-2.3-.945-.114.386a.153.153,0,0,1,.026-.052" transform="translate(57.478 9.671)" fill="#127b07"/>
        <path id="Path_8955" data-name="Path 8955" d="M71.707,23.041c-2.46-.009-.037,2.225.744.691.822,1.316,2.272,1.856.93.339,2.117.883,1.279-.391-.5-.656.839-1.888.839-1.508-.535-.837-.738-2.225-1.008-1.966-.229.14-1.612-2.682-2.272-2.6-.322-.015-2.96-2.341-2.3-.941-.114.384a.108.108,0,0,1,.026-.047" transform="translate(60.294 17.912)" fill="#127b07"/>
        <path id="Path_8956" data-name="Path 8956" d="M71.464,33.425c-2.46-.009-.032,2.231.744.691.822,1.316,2.278,1.856.93.337,2.117.891,1.28-.384-.494-.654.833-1.888.833-1.508-.535-.839-.738-2.22-1.008-1.959-.235.142-1.607-2.684-2.272-2.594-.322-.011-2.954-2.345-2.3-.941-.114.386a.227.227,0,0,1,.026-.052" transform="translate(60.086 26.883)" fill="#127b07"/>
        <path id="Path_8957" data-name="Path 8957" d="M75.69,42.124c-2.46-.009-.032,2.225.744.691.822,1.316,2.278,1.856.93.339,2.117.883,1.279-.391-.494-.662.831-1.882.831-1.508-.54-.831-.732-2.225-1-1.966-.229.134-1.607-2.676-2.272-2.594-.322-.009-2.954-2.341-2.3-.941-.114.384a.108.108,0,0,1,.026-.047" transform="translate(63.738 34.394)" fill="#127b07"/>
        <path id="Path_8958" data-name="Path 8958" d="M67.595,26.492c-2.468-.006-.039,2.231.742.691.822,1.321,2.278,1.862.93.343,2.117.885,1.282-.39-.494-.654.833-1.888.833-1.513-.546-.839-.731-2.225-1-1.964-.227.136-1.6-2.678-2.274-2.594-.322-.015-2.952-2.341-2.294-.943-.11.384a.117.117,0,0,1,.028-.047" transform="translate(56.742 20.895)" fill="#127b07"/>
        <path id="Path_8959" data-name="Path 8959" d="M64.818,28.3c-2.464-.006-.041,2.237.738.7.822,1.316,2.278,1.862.936.343,2.112.883,1.28-.4-.5-.66.831-1.89.831-1.513-.542-.839-.738-2.225-1.008-1.964-.227.136-1.608-2.678-2.272-2.594-.322-.011-2.954-2.341-2.3-.941-.116.386a.157.157,0,0,1,.032-.052" transform="translate(54.343 22.46)" fill="#127b07"/>
        <path id="Path_8960" data-name="Path 8960" d="M66.748,21.538c-2.464-.006-.037,2.237.738.7.828,1.31,2.279,1.862.936.337,2.117.889,1.28-.39-.492-.654.826-1.888.826-1.513-.542-.839-.738-2.223-1.008-1.964-.233.136-1.6-2.678-2.266-2.594-.317-.011-2.96-2.339-2.3-.941-.116.386a.137.137,0,0,1,.026-.052" transform="translate(56.012 16.617)" fill="#127b07"/>
        <path id="Path_8961" data-name="Path 8961" d="M59.258,12.97c-2.464-.011-.032,2.225.744.691.822,1.316,2.278,1.856.93.337,2.117.885,1.28-.39-.494-.66.833-1.882.833-1.508-.54-.833-.732-2.229-1-1.964-.227.142-1.608-2.684-2.272-2.6-.324-.017-2.952-2.345-2.3-.941-.108.38a.085.085,0,0,1,.02-.041" transform="translate(49.544 9.211)" fill="#127b07"/>
        <path id="Path_8962" data-name="Path 8962" d="M40.539,6.444c-2.464-.006-.032,2.231.744.691.822,1.316,2.278,1.862.93.343,2.117.883,1.286-.4-.494-.66.833-1.888.833-1.508-.54-.833-.738-2.225-1-1.964-.227.136-1.608-2.684-2.274-2.594-.324-.011-2.952-2.345-2.3-.941-.114.386.006-.015.021-.037.026-.052" transform="translate(33.375 3.577)" fill="#127b07"/>
        <path id="Path_8963" data-name="Path 8963" d="M33.294,4.63c-2.464,0-.037,2.237.738.7.828,1.316,2.283,1.862.936.343,2.117.883,1.28-.4-.494-.66.833-1.89.833-1.513-.54-.839-.738-2.225-1.008-1.964-.227.136C32.1,1.63,31.432,1.714,33.382,4.3c-2.958-2.341-2.3-.941-.114.386.006-.011.017-.037.026-.052" transform="translate(27.115 2.012)" fill="#127b07"/>
        <path id="Path_8964" data-name="Path 8964" d="M18.195,17.435c-2.46,0-.032,2.231.749.691.816,1.316,2.272,1.862.924.345,2.117.883,1.286-.4-.494-.656.839-1.894.839-1.519-.535-.842-.744-2.225-1-1.961-.229.14-1.612-2.682-2.278-2.6-.328-.015-2.952-2.341-2.3-.941-.114.384a.259.259,0,0,0,.026-.047" transform="translate(14.075 13.069)" fill="#127b07"/>
        <path id="Path_8965" data-name="Path 8965" d="M8.174,54.267c-2.464,0-.037,2.237.738.7.828,1.31,2.283,1.862.936.339,2.117.889,1.28-.391-.492-.656.826-1.888.826-1.513-.542-.837-.738-2.225-1.008-1.966-.227.134-1.608-2.682-2.274-2.594-.322-.009-2.96-2.341-2.3-.943-.116.384a.453.453,0,0,1,.026-.052" transform="translate(5.417 44.886)" fill="#127b07"/>
        <path id="Path_8966" data-name="Path 8966" d="M7.566,61.156c-2.458-.011-.032,2.231.744.691.828,1.316,2.278,1.862.93.337,2.123.889,1.28-.384-.492-.654.831-1.888.831-1.513-.537-.839-.738-2.225-1.008-1.964-.233.136-1.608-2.678-2.272-2.594-.319-.011-2.958-2.339-2.3-.941-.114.386a.082.082,0,0,1,.021-.047" transform="translate(4.895 50.833)" fill="#127b07"/>
        <path id="Path_8967" data-name="Path 8967" d="M17.955,73.231c-2.466-.006-.037,2.231.744.691.822,1.316,2.278,1.862.93.343,2.117.885,1.284-.39-.494-.654.833-1.888.833-1.513-.54-.839-.738-2.225-1.008-1.964-.229.13-1.607-2.678-2.272-2.589-.322-.006-2.954-2.339-2.3-.941-.114.386a.228.228,0,0,1,.026-.052" transform="translate(13.867 61.266)" fill="#127b07"/>
        <path id="Path_8968" data-name="Path 8968" d="M45.549,80.13c-2.464-.009-.037,2.231.738.691.828,1.316,2.279,1.862.936.339,2.112.889,1.28-.391-.5-.656.831-1.888.831-1.508-.537-.837-.738-2.225-1.008-1.966-.233.134-1.608-2.676-2.274-2.589-.322-.006-2.954-2.345-2.3-.941-.11.38,0-.009.017-.03.026-.047" transform="translate(37.699 67.226)" fill="#127b07"/>
        <path id="Path_8969" data-name="Path 8969" d="M51.944,80.25c-2.46-.006-.026,2.231.749.691.816,1.316,2.272,1.862.926.343,2.115.883,1.284-.39-.5-.66.839-1.888.839-1.508-.54-.833-.732-2.223-1-1.964-.224.136-1.612-2.684-2.272-2.594-.322-.011-2.958-2.345-2.3-.941-.119.386.006-.015.021-.037.026-.052" transform="translate(43.228 67.33)" fill="#127b07"/>
        <path id="Path_8970" data-name="Path 8970" d="M72.649,60.369c-2.464-.011-.037,2.231.738.691.828,1.316,2.278,1.862.936.339,2.117.887,1.28-.391-.494-.656.833-1.888.833-1.508-.546-.837-.738-2.225-1-1.961-.222.14-1.608-2.684-2.279-2.6-.328-.017-2.954-2.339-2.294-.936-.116.391a.391.391,0,0,1,.032-.052" transform="translate(61.109 50.154)" fill="#127b07"/>
        <path id="Path_8971" data-name="Path 8971" d="M63.832,69.788c-2.466-.011-.037,2.231.744.691.822,1.316,2.278,1.862.93.337,2.117.889,1.284-.384-.494-.654.833-1.888.833-1.508-.54-.839-.738-2.225-1.008-1.961-.229.142-1.607-2.684-2.272-2.6-.322-.011-2.958-2.345-2.3-.947-.119.384a.458.458,0,0,0,.032-.05" transform="translate(53.493 58.292)" fill="#127b07"/>
        <path id="Path_8972" data-name="Path 8972" d="M34.791,79.733c-2.46-.006-.032,2.237.744.691.822,1.316,2.278,1.862.93.343,2.117.885,1.284-.39-.494-.654.833-1.888.833-1.513-.541-.839-.732-2.225-1-1.964-.229.136-1.607-2.678-2.272-2.594-.322-.011-2.954-2.345-2.3-.941-.108.38a.3.3,0,0,1,.021-.047" transform="translate(28.41 66.885)" fill="#127b07"/>
        <path id="Path_8973" data-name="Path 8973" d="M23.189,77.1c-2.466-.006-.035,2.237.738.7.822,1.31,2.274,1.862.932.339,2.115.887,1.284-.391-.5-.656.833-1.888.833-1.513-.541-.837-.738-2.225-1.008-1.966-.227.134-1.607-2.678-2.272-2.594-.322-.011-2.954-2.345-2.3-.941-.116.386a.178.178,0,0,1,.032-.052" transform="translate(18.385 64.612)" fill="#127b07"/>
        <path id="Path_8974" data-name="Path 8974" d="M20.239,66.412c-2.462-.006-.032,2.237.747.691.816,1.321,2.272,1.868.924.343,2.117.885,1.286-.39-.492-.654.833-1.888.833-1.513-.542-.839-.738-2.225-1-1.964-.229.136-1.6-2.678-2.27-2.594-.322-.011-2.952-2.339-2.3-.941-.114.386.006-.015.022-.037.028-.052" transform="translate(15.839 55.379)" fill="#127b07"/>
        <path id="Path_8975" data-name="Path 8975" d="M29.656,67.5c-2.458-.006-.032,2.231.746.691.82,1.316,2.276,1.862.93.343,2.121.883,1.284-.39-.494-.66.831-1.884.831-1.508-.542-.839-.732-2.225-1-1.961-.227.142-1.608-2.678-2.272-2.594-.322-.011-2.954-2.341-2.3-.941-.11.384,0-.013.017-.035.021-.05" transform="translate(23.976 56.319)" fill="#127b07"/>
        <path id="Path_8976" data-name="Path 8976" d="M36.178,63.153c-2.46-.009-.032,2.231.749.691.82,1.316,2.278,1.862.924.345,2.123.883,1.284-.391-.488-.662.833-1.882.833-1.513-.54-.837-.738-2.225-1-1.966-.229.14-1.612-2.676-2.272-2.594-.322-.015-2.96-2.341-2.3-.941-.114.384a.2.2,0,0,1,.021-.047" transform="translate(29.608 52.564)" fill="#127b07"/>
        <path id="Path_8977" data-name="Path 8977" d="M31.3,60.321c-2.466-.009-.032,2.231.744.7.822,1.31,2.278,1.856.93.334,2.117.889,1.279-.386-.494-.656.833-1.882.833-1.508-.546-.837-.727-2.22-1-1.961-.224.14-1.607-2.676-2.272-2.594-.322-.009-2.96-2.341-2.3-.947-.114.384a.272.272,0,0,1,.026-.052" transform="translate(25.389 50.118)" fill="#127b07"/>
        <path id="Path_8978" data-name="Path 8978" d="M50.5,60.321c-2.464-.009-.037,2.231.738.7.828,1.31,2.278,1.856.932.334,2.121.889,1.284-.386-.494-.656.831-1.882.831-1.508-.542-.837-.738-2.22-1-1.961-.227.14-1.608-2.676-2.272-2.594-.322-.009-2.954-2.341-2.3-.947-.116.384a.178.178,0,0,1,.032-.052" transform="translate(41.977 50.118)" fill="#127b07"/>
        <path id="Path_8979" data-name="Path 8979" d="M65.353,47.4c-2.46-.011-.032,2.225.744.691.822,1.316,2.278,1.856.93.337,2.117.883,1.28-.39-.494-.654.833-1.888.833-1.508-.546-.837-.727-2.225-1-1.966-.222.14-1.608-2.684-2.274-2.594-.324-.017-2.958-2.339-2.3-.939-.114.386l.026-.047" transform="translate(54.807 38.955)" fill="#127b07"/>
        <path id="Path_8980" data-name="Path 8980" d="M70.545,41.245c-2.46-.009-.032,2.225.744.691.822,1.316,2.278,1.856.93.339,2.117.883,1.28-.391-.494-.662.833-1.881.833-1.508-.535-.837-.744-2.225-1.008-1.961-.235.14-1.607-2.676-2.272-2.594-.317-.009-2.96-2.345-2.3-.941-.119.384a.143.143,0,0,1,.026-.047" transform="translate(59.294 33.635)" fill="#127b07"/>
        <path id="Path_8981" data-name="Path 8981" d="M64.508,33.875c-2.466-.006-.037,2.231.744.691.822,1.316,2.278,1.862.93.343,2.117.885,1.28-.39-.494-.66.833-1.888.833-1.508-.541-.839-.738-2.223-1.008-1.959-.229.142-1.607-2.684-2.272-2.6-.322-.015-2.958-2.341-2.3-.937-.114.39a.228.228,0,0,1,.026-.052" transform="translate(54.077 27.27)" fill="#127b07"/>
        <path id="Path_8982" data-name="Path 8982" d="M49.242,52.085c-1.623,3.474,3.126,1.508,1.461-.593,2.391-.3,4.125-2,1.1-1.092,2.641-2.408.285-2.065-1.26.261-2.115-2.414-1.575-2.164-1.528.218-3.625-.423-3.437.123.041.41-4.835.511-5.148,1.5-.224.447-5.247,2.641-2.839,2.632.47.421a.3.3,0,0,1-.058-.073" transform="translate(39.112 42.108)" fill="#6ea00a"/>
        <path id="Path_8983" data-name="Path 8983" d="M34.763,41.562c2.179,0,.026-1.97-.654-.613-.723-1.165-2.013-1.644-.828-.3-1.868-.79-1.128.343.438.583-.734,1.662-.734,1.331.477.738.654,1.961.895,1.731.2-.125,1.418,2.371,2,2.287.285.009,2.617,2.065,2.028.833.1-.337-.011.015-.015.032-.026.047" transform="translate(27.793 34.41)" fill="#6ea00a"/>
        <path id="Path_8984" data-name="Path 8984" d="M44.736,34.034c3.031,0,.037-2.751-.915-.857-1.014-1.614-2.809-2.289-1.156-.421-2.606-1.087-1.569.483.609.816-1.019,2.324-1.019,1.856.671,1.029.9,2.736,1.238,2.419.281-.171,1.981,3.3,2.792,3.193.393.009,3.642,2.887,2.829,1.161.147-.473-.011.028-.022.043-.032.069" transform="translate(35.523 27.32)" fill="#6ea00a"/>
        <path id="Path_8985" data-name="Path 8985" d="M53.233,40.417c2.641,0,.026-2.4-.8-.749-.878-1.4-2.449-2-1-.363-2.274-.956-1.374.416.529.712-.895,2.024-.895,1.612.578.889.8,2.393,1.081,2.117.244-.145,1.731,2.881,2.443,2.783.349.011,3.178,2.516,2.475,1.008.13-.416a.29.29,0,0,0-.026.062" transform="translate(43.261 33.1)" fill="#6ea00a"/>
        <path id="Path_8986" data-name="Path 8986" d="M39.312,53.221c-3.418,1.733,1.534,3.12,1.517.442,2.065,1.243,4.479.973,1.541-.181,3.567-.265,1.5-1.446-1.15-.572-.177-3.209.088-2.678-1.336-.781-2.591-2.568-2.783-2.017-.224.354-4.119-2.585-4.976-2-.453.214-5.757-1.165-3.854.317.1.613Z" transform="translate(30.732 43.568)" fill="#6ea00a"/>
        <path id="Path_8987" data-name="Path 8987" d="M35.569,37.058c-2.46-.009-.032,2.231.744.691.822,1.321,2.278,1.862.93.343,2.117.885,1.28-.39-.494-.66.833-1.882.833-1.508-.535-.839-.738-2.223-1.008-1.959-.235.142-1.607-2.678-2.266-2.6-.317-.011-2.96-2.339-2.307-.947-.119.386a.341.341,0,0,1,.026-.052" transform="translate(29.082 30.022)" fill="#6ea00a"/>
        <path id="Path_8988" data-name="Path 8988" d="M33.4,49.384c-2.466,0-.032,2.237.744.691.822,1.316,2.278,1.868.93.345,2.117.889,1.284-.391-.494-.656.833-1.888.833-1.513-.54-.837-.738-2.225-1-1.966-.229.134-1.607-2.676-2.272-2.594-.322-.009-2.958-2.341-2.3-.943-.114.384a.453.453,0,0,1,.026-.052" transform="translate(27.209 40.67)" fill="#6ea00a"/>
        <path id="Path_8989" data-name="Path 8989" d="M75.351,51.56c3.828.218.239-3.457-1.092-1.139-1.159-2.112-3.385-3.085-1.426-.613-3.208-1.56-2.022.5.714,1.07-1.456,2.861-1.42,2.274.77,1.342.956,3.523,1.4,3.142.369-.192,2.266,4.305,3.3,4.218.494.041,4.4,3.892,3.5,1.666.218-.582-.015.021-.026.047-.047.073" transform="translate(61.248 41.76)" fill="#62a400"/>
        <path id="Path_8990" data-name="Path 8990" d="M68.825,60.412c-3.6,1.284,1.128,3.282,1.456.624,1.888,1.493,4.311,1.528,1.545.015,3.573.181,1.67-1.249-1.066-.718.224-3.2.427-2.643-1.232-.932-2.248-2.87-2.507-2.356-.267.324-3.765-3.09-4.684-2.611-.473.149-5.563-1.877-3.864-.171.032.624,0-.032.006-.056.006-.088" transform="translate(56.343 49.643)" fill="#62a400"/>
        <path id="Path_8991" data-name="Path 8991" d="M57.924,74.768c3.834,0,.047-3.474-1.154-1.081-1.275-2.039-3.552-2.9-1.452-.531-3.3-1.383-2,.609.764,1.025-1.3,2.937-1.29,2.345.839,1.3,1.148,3.465,1.569,3.064.358-.212,2.507,4.177,3.536,4.035.5.015,4.607,3.64,3.582,1.467.186-.6a.481.481,0,0,0-.041.082" transform="translate(46.094 61.959)" fill="#62a400"/>
        <path id="Path_8992" data-name="Path 8992" d="M50.83,77.966c-3.729.9.773,3.385,1.377.773,1.722,1.687,4.128,1.977,1.539.179,3.526.567,1.795-1.062-.988-.816.567-3.163.7-2.585-1.128-1.066-1.925-3.1-2.242-2.606-.293.291-3.416-3.465-4.384-3.09-.488.1-5.336-2.453-3.828-.582-.037.624a.43.43,0,0,1,.017-.088" transform="translate(40.932 64.679)" fill="#62a400"/>
        <path id="Path_8993" data-name="Path 8993" d="M30.21,79.185c-3.806-.431-.431,3.442,1.031,1.2,1.04,2.173,3.208,3.265,1.389.691,3.12,1.735,2.043-.386-.65-1.107,1.607-2.777,1.543-2.19-.691-1.385-.76-3.567-1.223-3.213-.386.173-2.022-4.426-3.062-4.4-.488-.069-4.175-4.128-3.4-1.856-.25.572a.824.824,0,0,1,.047-.073" transform="translate(23.786 65.16)" fill="#62a400"/>
        <path id="Path_8994" data-name="Path 8994" d="M11.873,64.3c-3.817.38.3,3.457,1.258.956,1.472,1.9,3.823,2.527,1.5.391,3.416,1.038,1.92-.807-.869-.952.993-3.047,1.057-2.464-.962-1.208-1.487-3.327-1.873-2.885-.339.25-2.906-3.9-3.916-3.66-.494.032-4.95-3.161-3.713-1.1-.125.613a.742.742,0,0,1,.032-.082" transform="translate(7.505 52.603)" fill="#62a400"/>
        <path id="Path_8995" data-name="Path 8995" d="M4.232,54.431c-3.234-2.059-1.894,2.908.4,1.528-.017,2.408,1.446,4.348.941,1.228,2.043,2.932,2.007.555-.1-1.28,2.663-1.787,2.347-1.284-.015-1.549.885-3.536.313-3.422-.421-.009.125-4.863-.816-5.3-.41-.281-1.935-5.543-2.237-3.152-.479.4a.525.525,0,0,1,.078-.041" transform="translate(1.995 43.621)" fill="#62a400"/>
        <path id="Path_8996" data-name="Path 8996" d="M14.738,27.78c3.839.006.047-3.469-1.148-1.083-1.28-2.037-3.552-2.891-1.461-.529-3.3-1.377-1.992.608.77,1.031-1.3,2.932-1.3,2.345.841,1.3,1.144,3.457,1.571,3.057.354-.212,2.507,4.169,3.537,4.03.5.009,4.607,3.646,3.584,1.467.192-.6a.706.706,0,0,1-.047.084" transform="translate(8.79 21.373)" fill="#62a400"/>
        <path id="Path_8997" data-name="Path 8997" d="M6.909,27c-.77-3.756-3.411.656-.826,1.348-1.743,1.662-2.117,4.061-.229,1.534-.688,3.5,1,1.825.857-.964,3.131.677,2.553.8,1.1-1.087,3.15-1.819,2.673-2.153-.281-.3,3.577-3.3,3.234-4.276-.088-.494,2.635-5.248.712-3.8-.624-.058.03.006.056.015.088.021" transform="translate(3.972 20.403)" fill="#62a400"/>
        <path id="Path_8998" data-name="Path 8998" d="M5.574,35.132c-3.64-1.217-1.144,3.277.753,1.389.563,2.341,2.451,3.869,1.208.967,2.688,2.35,2.086.052-.4-1.217,2.158-2.382,1.966-1.821-.386-1.5.006-3.646-.524-3.4-.41.088-1.049-4.747-2.069-4.941-.468-.171-3.213-4.909-2.932-2.518-.363.509.021-.02.047-.041.067-.062" transform="translate(3.041 26.951)" fill="#62a400"/>
        <path id="Path_8999" data-name="Path 8999" d="M39.35,7c3.834.006.043-3.469-1.159-1.077-1.275-2.043-3.547-2.9-1.45-.535-3.3-1.377-1.992.609.764,1.031-1.3,2.937-1.292,2.345.841,1.3,1.144,3.457,1.571,3.062.354-.212,2.507,4.169,3.537,4.03.505.009,4.6,3.646,3.578,1.467.183-.593-.011.026-.026.052-.037.078" transform="translate(30.05 3.423)" fill="#62a400"/>
        <path id="Path_9000" data-name="Path 9000" d="M29.788,10.286c-1.659-3.457-3.152,1.467-.479,1.508-1.279,2.039-1.066,4.456.157,1.545.183,3.567,1.409,1.528.593-1.141,3.209-.1,2.673.151.807-1.32,2.62-2.533,2.08-2.736-.349-.229,2.678-4.061,2.1-4.93-.2-.457,1.29-5.727-.235-3.865-.619.093Z" transform="translate(24.053 5.676)" fill="#62a400"/>
      </g>
    </g>
  </g>
</svg>
