<svg id="Group_1270" data-name="Group 1270" xmlns="http://www.w3.org/2000/svg" xmlns:xlink="http://www.w3.org/1999/xlink" width="65.234" height="68.7" viewBox="0 0 65.234 68.7">
  <defs>
    <clipPath id="clip-path">
      <rect id="Rectangle_1587" data-name="Rectangle 1587" width="65.234" height="68.7" fill="none"/>
    </clipPath>
    <clipPath id="clip-path-2">
      <rect id="Rectangle_1586" data-name="Rectangle 1586" width="65.235" height="68.7" fill="none"/>
    </clipPath>
    <clipPath id="clip-path-3">
      <rect id="Rectangle_1585" data-name="Rectangle 1585" width="56.184" height="58.824" fill="none"/>
    </clipPath>
  </defs>
  <g id="Group_1269" data-name="Group 1269" clip-path="url(#clip-path)">
    <g id="Group_1268" data-name="Group 1268" transform="translate(0 0)">
      <g id="Group_1267" data-name="Group 1267" clip-path="url(#clip-path-2)">
        <g id="Group_1266" data-name="Group 1266" transform="translate(9.051 9.876)" opacity="0.21" style="mix-blend-mode: multiply;isolation: isolate">
          <g id="Group_1265" data-name="Group 1265">
            <g id="Group_1264" data-name="Group 1264" clip-path="url(#clip-path-3)">
              <path id="Path_9001" data-name="Path 9001" d="M56.838,36.558c2.35-1.553,2.873-3.6.412-5.136.7-.941-.478-1.454-3.232-1.261a33.924,33.924,0,0,0-6.534-.858c16.787-13.612,10.906-18.924.985-11.794-.006-3.343-2-4.917-5.616-2.236C43.8,2.555,38.538,3.2,35.931,13.153c-.924-3.81-2.08-6.188-3.22-7.329-.243-.511-.44-.661-.616-.5-2.709-1.691-5.087,3.364-3.842,11.952C16.127,5.009,7.506,12.19,14.322,22.22c-7.189-2.307-6.843-1.76-2.042,2.423C4.224,23.25,2.32,24.875,7.4,27.418c-2.467,1.685,1.48,5.64,10.466,7.72C-.259,40.544,3.133,45.182,14.9,43.216c-12.493,12.112-2.135,21.2,10.368,8.418.006.065.018.126.018.185-3.68,13.908.225,14.794,4.337,7.467a5.771,5.771,0,0,0,2.291.489c1.15,6.393,4.454,4.268,5.88-3.171a12.065,12.065,0,0,0,1.9-3.712c3.242,2.644,6.589,2.875,8,.706a6.44,6.44,0,0,0,6.178-1.977c1.827,1.036,1.9.649.781-1.178,1.156-2.263,1-5.423-1.03-8.54,8.832.4,8.953-2.928,3.211-5.346" transform="translate(-4.587 -5.005)"/>
            </g>
          </g>
        </g>
        <path id="Path_9002" data-name="Path 9002" d="M20.233,26.011c-32.348,17.7-10.516,37.281,7.145,5.557C31.81,50.643,50.9,50.154,38.849,31.226c26.041,5.279,18.19-7.374-4.264-6.415,17.213-23.184,15.494-17.7-4.138-8.1C27.538-1.744,23.222,2.1,26.857,19.613,14.577-.87,6.2,2.931,22.681,21.121c-29.88-10.752-26.762,3.789-3,5.726Z" transform="translate(1.038 4.434)" fill="#006017"/>
        <path id="Path_9003" data-name="Path 9003" d="M28.29,36.986c17.383,27.539,35.046-.91,4.9-9.042C47.386,17.555,44.477-1.748,31.4,16.355,28.488-11.707,16.3.294,25.246,22.736-6.193,12.661-.269,12.688,17.317,29.5-6.655,38.45-2.106,41.642,20.8,32.25-4.123,51.389.883,58.745,22.9,36.023c-12.56,34.019,2.175,26.263,6.342,1.255Z" transform="translate(1.315 0)" fill="#108319"/>
        <path id="Path_9004" data-name="Path 9004" d="M27.252,21.141c-20.684-32.159-38.227-7.307-4.89,8.045-18.654,6.557-16.388,26.531,1.4,12-2.857,27.837,9.057,18.34,6.019-5.115C54.539,51.809,48.9,50.547,37.494,30.92c18.168-4.9,13.92-9.042-3.242-3.481,19.33-14.916,14.76-23.328-1.894-4.217,7.972-32.419-6.265-27.7-5.995-2.577Z" transform="translate(3.624 0.341)" fill="#006017"/>
        <path id="Path_9005" data-name="Path 9005" d="M23.944,32.85c-13.572,29.605,19.9,28.855,10.245-.831,16.457,6.2,31.038-6.774,8.728-7.836,21.913-17.767,5.209-21.422-8.7-1.667-8.744-31.835-5.523-26.858-10-2.94-20.6-15.2-20.783-9.636-.4,4.41C-5.831,13.579-9.254,21.79,21.8,27.812-13.556,35.873,1,43.983,24.209,33.807Z" transform="translate(0 0.128)" fill="#108319"/>
        <path id="Path_9006" data-name="Path 9006" d="M21.919,25.236c1.551,19.22,17.691,10.731,4.773-2.924,9.744-.628,13.278-11.139,2.1-6.33,5.788-14.849-3.378-12.781-4.71,1.2C11.016,2.16,13.962,4.061,18.383,18.024,4.122,14.807,5.572,17.852,19.407,20.5c-17.353,1.557-16.749,6.792.073,2.544-15.033,12.882-5.689,13.724,2.834,2.636Z" transform="translate(6.449 5.583)" fill="#52922c"/>
        <path id="Path_9007" data-name="Path 9007" d="M17.666,18.123c1.046,7.725,7.335,3.887,1.843-1.3,3.905-.5,5.089-4.835.7-2.611,2-6.151-1.63-5.077-1.861.606C12.777,9.066,14,9.766,16.086,15.3c-5.792-.945-5.142.249.468.971-6.93,1.062-6.575,3.165.083,1.028-5.748,5.584-1.977,5.689,1.2,1Z" transform="translate(11.191 9.783)" fill="#84ac2b"/>
        <path id="Path_9008" data-name="Path 9008" d="M15.844,14.677s-1.322,2.439,1,3.491c0,0,.391.128.6.809.032-.026,1.512-5.918-1.592-4.3" transform="translate(15.056 14.011)" fill="#006017"/>
        <path id="Path_9009" data-name="Path 9009" d="M14.668,13.933s-1.75.424-1.249,2a.73.73,0,0,1-.126.639c.02,0,3.512-1.845,1.375-2.638" transform="translate(12.938 13.561)" fill="#006017"/>
        <path id="Path_9010" data-name="Path 9010" d="M15.8,13.067s-.365-1.762-1.954-1.326a.719.719,0,0,1-.633-.154c0,.026,1.707,3.583,2.587,1.48" transform="translate(12.862 11.278)" fill="#006017"/>
        <path id="Path_9011" data-name="Path 9011" d="M15.978,13.391s1.7-.59,1.056-2.109a.707.707,0,0,1,.065-.643c-.026-.006-3.317,2.163-1.121,2.753" transform="translate(14.817 10.354)" fill="#006017"/>
        <path id="Path_9012" data-name="Path 9012" d="M15.848,13.391A1.59,1.59,0,0,0,18.2,13.33a.722.722,0,0,1,.6-.247c-.006-.022-3.469-1.916-2.958.308" transform="translate(15.375 11.982)" fill="#006017"/>
        <path id="Path_9013" data-name="Path 9013" d="M14.364,13.539s-1.245-.612-1.731.566c0,0-.041.193-.385.314.016.018,2.984.639,2.115-.88" transform="translate(11.922 13.023)" fill="#006017"/>
        <path id="Path_9014" data-name="Path 9014" d="M13.623,12.924s-.308-.736-.957-.4a.313.313,0,0,1-.286-.01c0,.01,1.056,1.4,1.243.412" transform="translate(12.049 12.103)" fill="#006017"/>
      </g>
    </g>
  </g>
</svg>
