<svg xmlns="http://www.w3.org/2000/svg" xmlns:xlink="http://www.w3.org/1999/xlink" width="356.575" height="119.382" viewBox="0 0 356.575 119.382">
  <defs>
    <clipPath id="clip-path">
      <rect id="Rectangle_1368" data-name="Rectangle 1368" width="356.575" height="119.382" fill="none"/>
    </clipPath>
  </defs>
  <g id="Group_1089" data-name="Group 1089" transform="translate(0 0)">
    <g id="Group_1088" data-name="Group 1088" transform="translate(0 0)" clip-path="url(#clip-path)">
      <path id="Path_7622" data-name="Path 7622" d="M57.426,25.393,53.741,12.012a5.152,5.152,0,0,0-2.969-3.206l-.716.847.709-.854a8.142,8.142,0,0,0-5.2-.493L31.051,11.953a4.824,4.824,0,0,0-3.324,2.68c-.742,3.462,1.314,5.137,1.675,6.609l2.884,11.036v.007l.026.092v.02c.414,1.485.039,2.785,1.531,3.423a8.035,8.035,0,0,0,4.9.42l.138-.033.046-.013,15.011-4.139A4.894,4.894,0,0,0,57.2,29.466a5.894,5.894,0,0,0,.223-4.066Zm-2.713,3.449a2.478,2.478,0,0,1-1.636,1.347L38.093,34.327l-.112.026a4.607,4.607,0,0,1-2.785-.269c-.887-.381-.026-1.235-.276-2.115l-.026-.092L31.741,19.816c-.282-1.15-1.951-3.633-1.517-4.572a2.435,2.435,0,0,1,1.6-1.412l14.511-3.646a4.748,4.748,0,0,1,3.009.322L49.34,10.5h.007a3.155,3.155,0,0,1,1.8,1.958l3.679,13.388a4.354,4.354,0,0,1-.112,3" transform="translate(153.523 45.036)" fill-rule="evenodd"/>
      <path id="Path_7623" data-name="Path 7623" d="M51.649,11.4c-.683-2.463-3.981-3.62-6.5-2.989L30.641,12.053c-2.516.631-3.35,3.35-2.739,5.847l3.311,13.539c.611,2.49,3.994,3.672,6.49,2.982l15.011-4.139c2.5-.69,3.3-3.028,2.621-5.5Z" transform="translate(154.321 45.875)" fill="#ffe7ad" fill-rule="evenodd"/>
      <path id="Path_7624" data-name="Path 7624" d="M42.5,10.545c-.361-1.563-2.516-2.28-4.093-1.885L31.089,10.5c-2.463.624-2.752,6.228-1.1,11.463,7.055,2.805,4.927,8.671,7.009,8.1l7.16-1.977c1.577-.427,1.544-3.823,1.182-5.387Z" transform="translate(161.231 47.633)" fill="#ffd26b" fill-rule="evenodd"/>
      <path id="Path_7625" data-name="Path 7625" d="M33.69,9.762c-2.549,1.143-3.869,4.736-3.239,6.129a3.263,3.263,0,0,0,2.174,2.26L37.651,9.46a5.132,5.132,0,0,0-3.961.3" transform="translate(168.72 51.161)" fill-rule="evenodd"/>
      <path id="Path_7626" data-name="Path 7626" d="M38.718,10.391v-.007L35.67,9.228l-5.019,8.691.026.013-.026-.007L35.2,19.653a5.23,5.23,0,0,0,4.014-.112,4.858,4.858,0,0,0,2.477-2.483l.013-.007.053-.151.02-.046v-.007a4.851,4.851,0,0,0-.125-3.718,5.234,5.234,0,0,0-2.93-2.739" transform="translate(170.701 51.393)" fill-rule="evenodd"/>
      <rect id="Rectangle_1315" data-name="Rectangle 1315" width="0.007" height="0.007" transform="translate(201.349 69.315)"/>
      <path id="Path_7627" data-name="Path 7627" d="M40.065,11.241,35.52,9.513a3.829,3.829,0,0,0-2.713,7.16L37.346,18.4a3.83,3.83,0,0,0,2.72-7.16" transform="translate(168.953 51.594)" fill="#ffd26b" fill-rule="evenodd"/>
      <path id="Path_7628" data-name="Path 7628" d="M39.281,11.24,34.735,9.512A3.842,3.842,0,0,0,30.478,10.6a3.836,3.836,0,0,0,2.463,3.626l4.552,1.728a3.827,3.827,0,0,0,4.25-1.077,3.829,3.829,0,0,0-2.463-3.633" transform="translate(169.737 51.595)" fill="#ffe7ad" fill-rule="evenodd"/>
      <path id="Path_7629" data-name="Path 7629" d="M33.966,11.061C31.424,12.2,30.1,15.8,30.734,17.2a3.267,3.267,0,0,0,2.174,2.253l5.025-8.691a5.15,5.15,0,0,0-3.968.3" transform="translate(170.296 58.396)" fill-rule="evenodd"/>
      <path id="Path_7630" data-name="Path 7630" d="M39,11.69v-.007l-3.048-1.156-5.019,8.691.026.013-.026-.007,4.546,1.728a5.229,5.229,0,0,0,4.014-.112,4.883,4.883,0,0,0,2.477-2.483l.013-.007.053-.151.02-.046v-.013a4.836,4.836,0,0,0-.125-3.712A5.213,5.213,0,0,0,39,11.69" transform="translate(172.277 58.628)" fill-rule="evenodd"/>
      <rect id="Rectangle_1316" data-name="Rectangle 1316" width="0.007" height="0.007" transform="translate(203.209 77.845)"/>
      <path id="Path_7631" data-name="Path 7631" d="M40.353,12.54l-4.546-1.728a3.83,3.83,0,1,0-2.72,7.16L37.634,19.7a3.83,3.83,0,0,0,2.72-7.16" transform="translate(170.524 58.829)" fill="#ffd26b" fill-rule="evenodd"/>
      <path id="Path_7632" data-name="Path 7632" d="M39.564,12.539l-4.546-1.728a3.836,3.836,0,0,0-4.257,1.084,3.845,3.845,0,0,0,2.463,3.633l4.546,1.728a3.836,3.836,0,0,0,4.257-1.084,3.845,3.845,0,0,0-2.463-3.633" transform="translate(171.313 58.83)" fill="#ffe7ad" fill-rule="evenodd"/>
      <path id="Path_7633" data-name="Path 7633" d="M33.294,8.556c-2.542,1.143-3.863,4.736-3.232,6.136a3.254,3.254,0,0,0,2.174,2.253l5.025-8.691a5.15,5.15,0,0,0-3.968.3" transform="translate(166.553 44.445)" fill-rule="evenodd"/>
      <rect id="Rectangle_1317" data-name="Rectangle 1317" width="0.007" height="0.007" transform="translate(198.792 61.393)"/>
      <path id="Path_7634" data-name="Path 7634" d="M38.329,9.186V9.179L35.281,8.023l-5.019,8.691.026.007h-.026l4.546,1.728a5.229,5.229,0,0,0,4.014-.112A4.858,4.858,0,0,0,41.3,15.853l.013-.007.053-.151.02-.053v-.007a4.853,4.853,0,0,0-.125-3.718,5.224,5.224,0,0,0-2.93-2.733" transform="translate(168.535 44.682)" fill-rule="evenodd"/>
      <path id="Path_7635" data-name="Path 7635" d="M39.682,10.035,35.136,8.307a3.83,3.83,0,0,0-2.72,7.16L36.962,17.2a3.83,3.83,0,0,0,2.72-7.16" transform="translate(166.781 44.878)" fill="#ffd26b" fill-rule="evenodd"/>
      <path id="Path_7636" data-name="Path 7636" d="M38.892,10.034,34.346,8.306A3.836,3.836,0,0,0,30.089,9.39a3.851,3.851,0,0,0,2.463,3.633L37.1,14.744a3.826,3.826,0,0,0,4.257-1.077,3.845,3.845,0,0,0-2.463-3.633" transform="translate(167.571 44.879)" fill="#ffe7ad" fill-rule="evenodd"/>
      <path id="Path_7637" data-name="Path 7637" d="M27.873,10.768a5.181,5.181,0,0,0,2.707,2.923c2.483,1.274,6.109.066,6.812-1.288A3.271,3.271,0,0,0,37.8,9.29Z" transform="translate(155.23 51.738)" fill-rule="evenodd"/>
      <rect id="Rectangle_1318" data-name="Rectangle 1318" width="0.008" height="0.008" transform="translate(193.025 61.025) rotate(-45)"/>
      <path id="Path_7638" data-name="Path 7638" d="M38.845,16.268l.013.02L37.38,11.657A5.279,5.279,0,0,0,34.8,8.582a4.88,4.88,0,0,0-3.488-.388L31.3,8.188l-.151.053-.053.013-.007.007a4.9,4.9,0,0,0-2.831,2.411,5.238,5.238,0,0,0-.315,4h-.007l.992,3.1,9.926-1.478Z" transform="translate(154.177 44.734)" fill-rule="evenodd"/>
      <path id="Path_7639" data-name="Path 7639" d="M35.335,10.893a3.83,3.83,0,0,0-7.3,2.325l1.478,4.631a3.83,3.83,0,0,0,7.3-2.325Z" transform="translate(155.145 45.839)" fill="#ffd26b" fill-rule="evenodd"/>
      <path id="Path_7640" data-name="Path 7640" d="M32.843,11.013a3.837,3.837,0,0,0-3.495-2.661,3.83,3.83,0,0,0-1.307,4.191l1.478,4.638a3.837,3.837,0,0,0,3.495,2.654,3.837,3.837,0,0,0,1.307-4.191Z" transform="translate(155.147 46.515)" fill="#ffe7ad" fill-rule="evenodd"/>
      <path id="Path_7641" data-name="Path 7641" d="M41.188,10.058,40.8,9.664a4.615,4.615,0,0,0-6.5-.039l-2.779,2.739a4.607,4.607,0,0,0-.039,6.51l.381.388h.059a4.624,4.624,0,0,0,6.063-.355l2.779-2.746a4.61,4.61,0,0,0,.427-6.05ZM38.9,14.289,36.1,17.035a1.948,1.948,0,0,1-1.373.552A1.909,1.909,0,0,1,33.358,17l-.072-.066a1.96,1.96,0,0,1-.48-1.3,1.919,1.919,0,0,1,.572-1.373l2.779-2.746a2,2,0,0,1,1.386-.565,1.973,1.973,0,0,1,1.268.486l.112.105a1.92,1.92,0,0,1,.552,1.373,1.952,1.952,0,0,1-.578,1.38" transform="translate(167.922 46.247)" fill-rule="evenodd"/>
      <path id="Path_7642" data-name="Path 7642" d="M38.736,9.474a3.281,3.281,0,0,0-4.625-.033l-2.785,2.746a3.273,3.273,0,1,0,4.6,4.658L38.7,14.105A3.283,3.283,0,0,0,38.736,9.474Z" transform="translate(169.047 47.363)" fill="#ffe7ad" fill-rule="evenodd"/>
      <path id="Path_7643" data-name="Path 7643" d="M39.17,9.239a3.453,3.453,0,0,1-.5.631l-2.779,2.746a3.289,3.289,0,0,1-4.631-.033,3.357,3.357,0,0,1-.657-.966,3.271,3.271,0,0,0,5.314,3.593L38.7,12.465a3.215,3.215,0,0,0,.841-1.406,3.31,3.31,0,0,0-.151-2.26,3.457,3.457,0,0,1-.223.44" transform="translate(169.047 49.004)" fill="#ffd26b" fill-rule="evenodd"/>
      <path id="Path_7644" data-name="Path 7644" d="M81.33,0C70.852,2.595,60.381,5.275,49.923,7.936l-11.9,18.88-.526.834L40.22,38.463l20.3,11.43c10.471-2.654,20.943-5.321,31.42-7.936q27.886-15.3,55.825-30.52L144.959.328C123.754.217,102.529,0,81.33,0m8.96,37.655L61.176,45.012l-17-9.571L42.4,28.418l10.406-16.5L81.928,4.566l59.458.3,1.077,4.263Z" transform="translate(208.811 0.001)" fill-rule="evenodd"/>
      <path id="Path_7645" data-name="Path 7645" d="M79.549.347,49.285,7.994,37.868,26.1l2.253,8.921,18.65,10.5L89.035,37.87l54-29.515L141.089.663Z" transform="translate(210.892 1.934)" fill="#003328" fill-rule="evenodd"/>
      <rect id="Rectangle_1319" data-name="Rectangle 1319" width="31.215" height="38.704" transform="translate(260.176 9.933) rotate(-14.187)" fill="#003c2f"/>
      <rect id="Rectangle_1320" data-name="Rectangle 1320" width="9.92" height="38.704" transform="translate(280.823 4.714) rotate(-14.187)" fill="#d08a00"/>
      <rect id="Rectangle_1321" data-name="Rectangle 1321" width="3.747" height="10.163" transform="translate(274.83 6.227) rotate(-14.18)" fill="#d08a00"/>
      <rect id="Rectangle_1322" data-name="Rectangle 1322" width="3.744" height="10.977" transform="matrix(0.969, -0.245, 0.245, 0.969, 281.624, 33.113)" fill="#d08a00"/>
      <path id="Path_7646" data-name="Path 7646" d="M80.055,1.715,49.785,9.362l-8.028,9.933L37.868,25.47l.138.552,13.487-9.906L81.763,8.469l59.6-7.377L141.2.461Z" transform="translate(210.894 2.566)" fill="#004838" fill-rule="evenodd"/>
      <path id="Path_7647" data-name="Path 7647" d="M84.765,21.692,54.494,29.345,38.143,27.913l.44,1.754,18.65,10.5L87.5,32.524,141.5,3l-.427-1.695Z" transform="translate(212.426 7.283)" fill="#00261d" fill-rule="evenodd"/>
      <rect id="Rectangle_1323" data-name="Rectangle 1323" width="31.223" height="11.174" transform="translate(266.92 36.626) rotate(-14.191)" fill="#003328"/>
      <rect id="Rectangle_1324" data-name="Rectangle 1324" width="9.923" height="11.173" transform="translate(287.57 31.409) rotate(-14.191)" fill="#b07200"/>
      <rect id="Rectangle_1325" data-name="Rectangle 1325" width="3.747" height="10.976" transform="translate(281.623 33.112) rotate(-14.169)" fill="#b07200"/>
      <path id="Path_7648" data-name="Path 7648" d="M39.682,8.3l1.708,6.753,2.293-.585L71.654,7.4,69.953.652Z" transform="translate(220.998 3.632)" fill="#004838" fill-rule="evenodd"/>
      <rect id="Rectangle_1326" data-name="Rectangle 1326" width="9.923" height="6.959" transform="translate(281.328 6.716) rotate(-14.207)" fill="#fc0"/>
      <rect id="Rectangle_1327" data-name="Rectangle 1327" width="3.744" height="6.965" transform="translate(275.335 8.227) rotate(-14.193)" fill="#fc0"/>
      <path id="Path_7649" data-name="Path 7649" d="M31.891,17.564l-2.358.6,3.331,13.171,56.58-14.3L86.113,3.861Zm4.487,7.876-.953-3.764L82.6,9.754l.953,3.764Z" transform="translate(164.475 21.503)" fill-rule="evenodd"/>
      <rect id="Rectangle_1328" data-name="Rectangle 1328" width="53.505" height="8.733" transform="translate(196.955 41.426) rotate(-14.193)" fill="#333"/>
      <rect id="Rectangle_1329" data-name="Rectangle 1329" width="53.504" height="2.016" transform="translate(197.264 42.643) rotate(-14.172)" fill="#4d4d4d"/>
      <path id="Path_7650" data-name="Path 7650" d="M30.194,18.261l.742,2.95L82.813,8.1l-.749-2.95Z" transform="translate(168.155 28.676)" fill="#1a1a1a" fill-rule="evenodd"/>
      <path id="Path_7651" data-name="Path 7651" d="M25.18,12.6l-1.78.453,6.287,24.878,9.46-2.391L32.86,10.658Zm7.16,20.877L27.847,15.7l2.358-.6L34.7,32.882Z" transform="translate(130.319 59.357)" fill-rule="evenodd"/>
      <rect id="Rectangle_1330" data-name="Rectangle 1330" width="6.097" height="21.993" transform="translate(155.943 73.736) rotate(-14.177)" fill="#333"/>
      <rect id="Rectangle_1331" data-name="Rectangle 1331" width="6.094" height="2.568" transform="translate(156.677 76.643) rotate(-14.214)" fill="#1a1a1a"/>
      <rect id="Rectangle_1332" data-name="Rectangle 1332" width="6.094" height="2.568" transform="translate(158.288 83.017) rotate(-14.214)" fill="#1a1a1a"/>
      <rect id="Rectangle_1333" data-name="Rectangle 1333" width="6.092" height="2.572" transform="translate(159.942 89.561) rotate(-14.214)" fill="#1a1a1a"/>
      <path id="Path_7652" data-name="Path 7652" d="M50.724,7.715,47.7,15.375l-5.833,1.478L36.18,9.568,29.2,11.328l10.59,12.35L53.01,20.335l4.585-12L53.51,9.377Z" transform="translate(162.641 42.969)" fill-rule="evenodd"/>
      <path id="Path_7653" data-name="Path 7653" d="M48.66,8.16l-2.536,6.425-8.093,2.043L32.342,9.349l-2.588.657L37.44,18.96l11.01-2.779,2.838-7.423-1.15.289Z" transform="translate(165.705 45.444)" fill="#4d4d4d" fill-rule="evenodd"/>
      <path id="Path_7654" data-name="Path 7654" d="M36.037,11.973a5.685,5.685,0,0,1-.263-3.1l.164-.966L31.1,9.122l-.394.1.145.565a8.294,8.294,0,0,0,2.608,4.434,5.731,5.731,0,0,0,4.257,1.353l1.025-.1-.926-.92a7.453,7.453,0,0,1-1.78-2.582M33.79,13.261a6.6,6.6,0,0,1-1.99-3.107l3.055-.769a6.971,6.971,0,0,0,.46,2.976A8.3,8.3,0,0,0,36.5,14.424a5.075,5.075,0,0,1-2.707-1.163" transform="translate(171.024 44.036)" fill-rule="evenodd"/>
      <path id="Path_7655" data-name="Path 7655" d="M34.909,8.02,30.79,9.058c.979,3.869,3.758,5.564,6.372,5.314A6.852,6.852,0,0,1,34.909,8.02" transform="translate(171.475 44.666)" fill="#4d4d4d" fill-rule="evenodd"/>
      <path id="Path_7656" data-name="Path 7656" d="M35.055,7.745l-6.293,7.016L30.214,20.2l2.654,21,11.89-6.674L43.011,16.607ZM36.08,34.817c-.854-6.773-1.176-12.567-2.9-19.011l1.879-2.1,4.119,4.579,1.36,14.025Z" transform="translate(160.181 43.134)" fill-rule="evenodd"/>
      <path id="Path_7657" data-name="Path 7657" d="M33.184,8.2,29.1,12.758l1.2,4.493,2.3,18.229L40.772,30.9l-1.55-15.97Z" transform="translate(162.053 45.662)" fill="#333" fill-rule="evenodd"/>
      <path id="Path_7658" data-name="Path 7658" d="M33.131,10.991,30.628,8.2l-.729.815,2.26,2.523.749.834.335.374,1.55,15.97-5.236,2.936.486,3.83L38.216,30.9l-1.55-15.97Z" transform="translate(164.611 45.663)" fill="#1a1a1a" fill-rule="evenodd"/>
      <path id="Path_7659" data-name="Path 7659" d="M30.687,15.641l-1.918.539,2.122,7.535,18.072-5.091L46.84,11.095Z" transform="translate(160.216 61.789)" fill-rule="evenodd"/>
      <rect id="Rectangle_1334" data-name="Rectangle 1334" width="14.803" height="3.889" transform="matrix(0.963, -0.27, 0.27, 0.963, 191.435, 79.315)" fill="#e6e6e6"/>
      <rect id="Rectangle_1335" data-name="Rectangle 1335" width="2.713" height="3.89" transform="translate(200.612 76.739) rotate(-15.773)" fill="#fff"/>
      <rect id="Rectangle_1336" data-name="Rectangle 1336" width="1.972" height="3.883" transform="translate(197.288 77.675) rotate(-15.706)" fill="#fff"/>
      <path id="Path_7660" data-name="Path 7660" d="M54.948,5.591l-34.14,8.632-1.6.4L27.43,47.148c29.824-7.561,29.193-5.755,53.2-17.776l-6-23.741Zm6.99,29L29.71,42.74l-6.4-25.3L55.553,9.289l16.633.033,4.52,17.868Z" transform="translate(106.995 31.138)" fill-rule="evenodd"/>
      <path id="Path_7661" data-name="Path 7661" d="M53.513,5.872,19.524,14.458l7.312,28.918,33.982-8.592,16.108-8.067L71.67,5.912Z" transform="translate(108.733 32.704)" fill="#333" fill-rule="evenodd"/>
      <path id="Path_7662" data-name="Path 7662" d="M24.7,5.872,32,34.783l16.108-8.067-5.255-20.8Z" transform="translate(137.548 32.704)" fill="#4d4d4d" fill-rule="evenodd"/>
      <path id="Path_7663" data-name="Path 7663" d="M25.543,15.776,27.3,22.72,43.4,14.653,41.736,8.038Z" transform="translate(142.254 44.766)" fill="#333" fill-rule="evenodd"/>
      <rect id="Rectangle_1337" data-name="Rectangle 1337" width="35.057" height="7.165" transform="matrix(0.97, -0.245, 0.245, 0.97, 133.808, 69.129)" fill="#1a1a1a"/>
      <rect id="Rectangle_1338" data-name="Rectangle 1338" width="35.058" height="6.912" transform="matrix(0.969, -0.245, 0.245, 0.969, 128.909, 49.744)" fill="#4d4d4d"/>
      <path id="Path_7664" data-name="Path 7664" d="M24.8,6.264l1.695,6.7L44.038,10.6l-.953-3.758Z" transform="translate(138.1 34.888)" fill="#666" fill-rule="evenodd"/>
      <path id="Path_7665" data-name="Path 7665" d="M3.094,10.963,0,10.083,13.427,63.228l20.24-19.136L27.012,17.736ZM15.484,56.172,5.183,15.417l18.748,5.308,5.6,22.164Z" transform="translate(0 56.155)" fill-rule="evenodd"/>
      <path id="Path_7666" data-name="Path 7666" d="M.395,10.489l11.864,46.95L29.4,41.232l-6.129-24.26Z" transform="translate(2.198 58.414)" fill="#333" fill-rule="evenodd"/>
      <path id="Path_7667" data-name="Path 7667" d="M1.761,24.693l2.89,11.444L21.8,19.93l-1.419-5.617Z" transform="translate(9.805 79.716)" fill="#1a1a1a" fill-rule="evenodd"/>
      <path id="Path_7668" data-name="Path 7668" d="M.56,11.14l2.424,9.611,21-.992-1.117-4.421Z" transform="translate(3.117 62.044)" fill="#4d4d4d" fill-rule="evenodd"/>
      <path id="Path_7669" data-name="Path 7669" d="M6.238,17.068l-1.55.394L11.27,43.509,40.5,36.125,33.914,10.072Zm7.213,22.046L8.7,20.287,31.72,14.473l4.763,18.821Z" transform="translate(26.108 56.094)" fill-rule="evenodd"/>
      <rect id="Rectangle_1339" data-name="Rectangle 1339" width="26.947" height="23.139" transform="translate(32.8 74.972) rotate(-14.182)" fill="#333"/>
      <path id="Path_7670" data-name="Path 7670" d="M5.075,17.335l1.1,4.349,26.126-6.6-1.1-4.349Z" transform="translate(28.265 59.775)" fill="#4d4d4d" fill-rule="evenodd"/>
      <rect id="Rectangle_1340" data-name="Rectangle 1340" width="26.947" height="7.23" transform="matrix(0.969, -0.245, 0.245, 0.969, 36.699, 90.398)" fill="#1a1a1a"/>
      <path id="Path_7671" data-name="Path 7671" d="M27.057,17.907l-.151.039L9.6,27.333l6,23.734c28.313-.887,31.046-3.5,62.526-11.457L69.915,7.074ZM34.5,46.785l-16.476.506-4.52-17.875,14.623-7.929L67.655,11.5l6.392,25.291Z" transform="translate(53.481 39.397)" fill-rule="evenodd"/>
      <path id="Path_7672" data-name="Path 7672" d="M25.857,17.842,9.9,26.5l5.255,20.8,18.006-.552L74.437,36.321,67.125,7.41Z" transform="translate(55.14 41.268)" fill="#333" fill-rule="evenodd"/>
      <path id="Path_7673" data-name="Path 7673" d="M9.9,17.657l5.255,20.8,18.006-.552L25.857,9Z" transform="translate(55.14 50.114)" fill="#4d4d4d" fill-rule="evenodd"/>
      <path id="Path_7674" data-name="Path 7674" d="M10.447,13.222l1.669,6.615,18.013-.552-1.761-6.944Z" transform="translate(58.179 68.736)" fill="#333" fill-rule="evenodd"/>
      <rect id="Rectangle_1341" data-name="Rectangle 1341" width="42.566" height="7.168" transform="translate(86.546 81.067) rotate(-14.164)" fill="#1a1a1a"/>
      <rect id="Rectangle_1342" data-name="Rectangle 1342" width="42.568" height="6.914" transform="translate(81.648 61.687) rotate(-14.195)" fill="#4d4d4d"/>
      <path id="Path_7675" data-name="Path 7675" d="M10.021,18.587l.953,3.764,16.561-6.26-1.695-6.7Z" transform="translate(55.806 52.296)" fill="#666" fill-rule="evenodd"/>
      <path id="Path_7676" data-name="Path 7676" d="M10.34,11.06l-1.813.46L16.3,42.277l7.949-2.01L16.482,9.5ZM19,37.757,13.047,14.207l.742-.184,5.952,23.544Z" transform="translate(47.488 52.925)" fill-rule="evenodd"/>
      <rect id="Rectangle_1343" data-name="Rectangle 1343" width="4.485" height="28.005" transform="translate(58.276 65.789) rotate(-14.189)" fill="#e6e6e6"/>
      <rect id="Rectangle_1344" data-name="Rectangle 1344" width="4.486" height="8.798" transform="translate(62.982 84.409) rotate(-14.171)" fill="#ccc"/>
      <rect id="Rectangle_1345" data-name="Rectangle 1345" width="4.486" height="2.788" transform="translate(58.585 67.015) rotate(-14.167)" fill="#fff"/>
      <path id="Path_7677" data-name="Path 7677" d="M9.06,11.69l.453,1.787,4.349-1.1-.453-1.787Z" transform="translate(50.455 58.997)" fill="#fff" fill-rule="evenodd"/>
      <path id="Path_7678" data-name="Path 7678" d="M20.212,7.987l-1.793.453L27.964,46.2l7.936-2L26.355,6.437ZM30.427,40.879,23.116,11.955l.769-.2L31.2,40.689Z" transform="translate(102.579 35.85)" fill-rule="evenodd"/>
      <rect id="Rectangle_1346" data-name="Rectangle 1346" width="4.485" height="34.394" transform="translate(123.348 46.048) rotate(-14.185)" fill="#e6e6e6"/>
      <rect id="Rectangle_1347" data-name="Rectangle 1347" width="4.485" height="10.801" transform="matrix(0.969, -0.245, 0.245, 0.969, 129.128, 68.917)" fill="#ccc"/>
      <path id="Path_7679" data-name="Path 7679" d="M18.835,8.169l.841,3.317,4.349-1.1-.841-3.317Z" transform="translate(104.895 39.387)" fill="#fff" fill-rule="evenodd"/>
      <path id="Path_7680" data-name="Path 7680" d="M19.008,8.855l.558,2.2,4.349-1.1-.558-2.2Z" transform="translate(105.861 43.209)" fill="#fff" fill-rule="evenodd"/>
      <path id="Path_7681" data-name="Path 7681" d="M5.293,12.334l-1.807.46,7.771,30.757,7.955-2.01L11.441,10.777Zm8.665,26.7L8.006,15.487l.742-.191L14.7,38.841Z" transform="translate(19.414 60.02)" fill-rule="evenodd"/>
      <rect id="Rectangle_1348" data-name="Rectangle 1348" width="4.485" height="28.005" transform="translate(25.162 74.157) rotate(-14.189)" fill="#e6e6e6"/>
      <rect id="Rectangle_1349" data-name="Rectangle 1349" width="4.486" height="8.798" transform="translate(29.869 92.778) rotate(-14.171)" fill="#ccc"/>
      <path id="Path_7682" data-name="Path 7682" d="M3.878,12.411l.683,2.707,4.349-1.1-.683-2.707Z" transform="translate(21.595 62.973)" fill="#fff" fill-rule="evenodd"/>
      <path id="Path_7683" data-name="Path 7683" d="M4.019,12.964l.453,1.787,4.349-1.1-.453-1.787Z" transform="translate(22.381 66.091)" fill="#fff" fill-rule="evenodd"/>
      <rect id="Rectangle_1350" data-name="Rectangle 1350" width="3.273" height="11.059" transform="translate(119.486 59.251) rotate(-14.201)"/>
      <rect id="Rectangle_1351" data-name="Rectangle 1351" width="3.273" height="11.059" transform="translate(114.078 60.617) rotate(-14.201)"/>
      <rect id="Rectangle_1352" data-name="Rectangle 1352" width="3.276" height="11.058" transform="translate(108.73 61.97) rotate(-14.201)"/>
      <rect id="Rectangle_1353" data-name="Rectangle 1353" width="3.279" height="11.057" transform="matrix(0.97, -0.245, 0.245, 0.97, 103.323, 63.336)"/>
      <path id="Path_7684" data-name="Path 7684" d="M25.386,6.68l-1.793.453,9.545,37.76,7.929-2L31.522,5.13ZM35.6,39.572,28.29,10.642l.775-.191,7.3,28.924Z" transform="translate(131.394 28.571)" fill-rule="evenodd"/>
      <rect id="Rectangle_1354" data-name="Rectangle 1354" width="4.486" height="34.391" transform="translate(157.336 37.459) rotate(-14.185)" fill="#e6e6e6"/>
      <rect id="Rectangle_1355" data-name="Rectangle 1355" width="4.486" height="10.804" transform="translate(163.114 60.327) rotate(-14.18)" fill="#ccc"/>
      <rect id="Rectangle_1356" data-name="Rectangle 1356" width="4.486" height="3.426" transform="translate(157.716 38.967) rotate(-14.196)" fill="#fff"/>
      <path id="Path_7685" data-name="Path 7685" d="M24.182,7.548l.558,2.2,4.349-1.1-.558-2.2Z" transform="translate(134.673 35.926)" fill="#fff" fill-rule="evenodd"/>
      <path id="Path_7686" data-name="Path 7686" d="M28.834,18.273l-1.373.348,5.794,22.926Q63.417,33.921,93.58,26.3L87.786,3.374Zm6.359,19.412L31,21.1,85.848,7.237l4.191,16.587Z" transform="translate(152.935 18.791)" fill-rule="evenodd"/>
      <rect id="Rectangle_1357" data-name="Rectangle 1357" width="59.396" height="20.378" transform="translate(182.165 38.653) rotate(-14.18)" fill="#333"/>
      <rect id="Rectangle_1358" data-name="Rectangle 1358" width="59.399" height="3.951" transform="translate(182.636 40.523) rotate(-14.152)" fill="#4d4d4d"/>
      <rect id="Rectangle_1359" data-name="Rectangle 1359" width="59.392" height="6.369" transform="matrix(0.969, -0.245, 0.245, 0.969, 185.601, 52.247)" fill="#1a1a1a"/>
      <path id="Path_7687" data-name="Path 7687" d="M32.141,5.683l-1.59.4,6.72,26.586L44.281,30.9,37.56,4.317Zm7.528,23.078L34.519,8.39l.657-.171L40.326,28.6Z" transform="translate(170.144 24.043)" fill-rule="evenodd"/>
      <rect id="Rectangle_1360" data-name="Rectangle 1360" width="3.95" height="24.216" transform="translate(202.684 31.279) rotate(-14.179)" fill="#e6e6e6"/>
      <rect id="Rectangle_1361" data-name="Rectangle 1361" width="3.95" height="7.606" transform="translate(206.755 47.384) rotate(-14.192)" fill="#ccc"/>
      <rect id="Rectangle_1362" data-name="Rectangle 1362" width="3.95" height="2.412" transform="matrix(0.969, -0.245, 0.245, 0.969, 202.953, 32.341)" fill="#fff"/>
      <rect id="Rectangle_1363" data-name="Rectangle 1363" width="3.951" height="1.596" transform="translate(203.755 35.519) rotate(-14.264)" fill="#fff"/>
      <path id="Path_7688" data-name="Path 7688" d="M36.2,4.662l-1.583.4,6.72,26.6,7.009-1.774-6.727-26.6ZM43.719,27.74,38.569,7.375l.657-.164,5.15,20.364Z" transform="translate(192.772 18.318)" fill-rule="evenodd"/>
      <rect id="Rectangle_1364" data-name="Rectangle 1364" width="3.953" height="24.217" transform="translate(229.367 24.535) rotate(-14.179)" fill="#e6e6e6"/>
      <rect id="Rectangle_1365" data-name="Rectangle 1365" width="3.95" height="7.603" transform="matrix(0.969, -0.245, 0.245, 0.969, 233.438, 40.641)" fill="#ccc"/>
      <rect id="Rectangle_1366" data-name="Rectangle 1366" width="3.95" height="2.412" transform="matrix(0.97, -0.245, 0.245, 0.97, 229.637, 25.597)" fill="#fff"/>
      <path id="Path_7689" data-name="Path 7689" d="M35.079,5.2l.394,1.55,3.83-.966-.394-1.55Z" transform="translate(195.36 23.572)" fill="#fff" fill-rule="evenodd"/>
      <path id="Path_7690" data-name="Path 7690" d="M25.339,16.88l-1.1.315,1.222,4.342L35.882,18.6l-1.215-4.349Z" transform="translate(134.97 79.377)" fill-rule="evenodd"/>
      <path id="Path_7691" data-name="Path 7691" d="M24.451,16.78l.611,2.155,8.218-2.312-.611-2.155Z" transform="translate(136.17 80.573)" fill="#e6e6e6" fill-rule="evenodd"/>
      <rect id="Rectangle_1367" data-name="Rectangle 1367" width="1.565" height="2.239" transform="matrix(0.963, -0.27, 0.27, 0.963, 165.916, 95.862)" fill="#fff"/>
      <path id="Path_7692" data-name="Path 7692" d="M24.965,14.936l.6,2.161,1.1-.309-.6-2.161Z" transform="translate(139.034 81.465)" fill="#fff" fill-rule="evenodd"/>
      <path id="Path_7693" data-name="Path 7693" d="M42.459,11.971l-.21-.335a4.612,4.612,0,0,0-2.91-1.99,4.562,4.562,0,0,0-3.449.644l-3.278,2.135a4.6,4.6,0,0,0-1.347,6.359l.105.151a4.6,4.6,0,0,0,6.254,1.189L40.9,17.995a4.629,4.629,0,0,0,2-2.91A4.57,4.57,0,0,0,42.459,12Zm-3,3.8-3.278,2.135a1.971,1.971,0,0,1-1.465.269,1.919,1.919,0,0,1-1.228-.841l-.02-.026a1.973,1.973,0,0,1-.25-1.445,1.944,1.944,0,0,1,.828-1.222l3.278-2.135A1.974,1.974,0,0,1,40,13.022l.026.053a1.958,1.958,0,0,1,.269,1.471,1.908,1.908,0,0,1-.828,1.228" transform="translate(170.014 53.163)" fill-rule="evenodd"/>
      <path id="Path_7694" data-name="Path 7694" d="M40.015,11.23a3.275,3.275,0,0,0-4.526-.953l-3.278,2.135a3.271,3.271,0,0,0,3.574,5.479l3.278-2.128A3.287,3.287,0,0,0,40.015,11.23Z" transform="translate(171.138 54.285)" fill="#ffe7ad" fill-rule="evenodd"/>
      <path id="Path_7695" data-name="Path 7695" d="M40.162,10.524a3.083,3.083,0,0,1-.611.512l-3.278,2.142a3.275,3.275,0,0,1-4.979-2.036,3.272,3.272,0,0,0,4.487,4.585l3.278-2.135a3.23,3.23,0,0,0,1.1-1.209,3.285,3.285,0,0,0,.3-2.247,2.457,2.457,0,0,1-.3.388" transform="translate(171.136 56.45)" fill="#ffd26b" fill-rule="evenodd"/>
      <path id="Path_7696" data-name="Path 7696" d="M39.029,11.028a4.258,4.258,0,0,0-3.2.6c-.624.407-2.674,1.6-3.081,2.01a4.266,4.266,0,0,0-1.1,5.781l.105.151a4.266,4.266,0,0,0,5.781,1.1l2.93-1.912a4.25,4.25,0,0,0-1.439-7.725m0,5.5-2.936,1.912a1.614,1.614,0,0,1-2.22-.466l-.013-.026a1.621,1.621,0,0,1-.21-1.189,1.581,1.581,0,0,1,.69-1.005l2.93-1.912a1.621,1.621,0,0,1,2.227.466,1.622,1.622,0,0,1,.223,1.209,1.594,1.594,0,0,1-.69,1.012" transform="translate(172.466 60.912)" fill-rule="evenodd"/>
      <path id="Path_7697" data-name="Path 7697" d="M35.428,11.611,32.5,13.523a2.929,2.929,0,1,0,3.2,4.907l2.93-1.912a2.929,2.929,0,1,0-3.2-4.907" transform="translate(173.591 62.037)" fill="#ffe7ad" fill-rule="evenodd"/>
      <path id="Path_7698" data-name="Path 7698" d="M39.614,11.835a2.891,2.891,0,0,1-.552.46l-2.93,1.912a2.933,2.933,0,0,1-4.053-.854,3.094,3.094,0,0,1-.407-.966,2.931,2.931,0,0,0,4.02,4.106l2.936-1.912a2.937,2.937,0,0,0,1.255-3.094,2.341,2.341,0,0,1-.269.348" transform="translate(173.589 63.974)" fill="#ffd26b" fill-rule="evenodd"/>
      <path id="Path_7699" data-name="Path 7699" d="M35.7,9.45a4.61,4.61,0,0,0-6.5-.2l-.026.033a4.6,4.6,0,0,0-.171,6.464l2.68,2.844a4.618,4.618,0,0,0,6.5.2l.033-.033a4.6,4.6,0,0,0,.158-6.464Zm.677,7.41-.033.033a1.979,1.979,0,0,1-1.366.5,1.947,1.947,0,0,1-1.36-.611L30.91,13.911a1.96,1.96,0,0,1-.5-1.366,1.909,1.909,0,0,1,.611-1.36l.026-.026a1.92,1.92,0,0,1,1.366-.5,1.952,1.952,0,0,1,1.36.6l2.68,2.844a1.959,1.959,0,0,1-.079,2.752" transform="translate(154.61 44.608)" fill-rule="evenodd"/>
      <path id="Path_7700" data-name="Path 7700" d="M33.614,9.235a3.272,3.272,0,1,0-4.763,4.487l2.68,2.844a3.277,3.277,0,0,0,4.625.138h.007a3.282,3.282,0,0,0,.131-4.625Z" transform="translate(155.73 45.73)" fill="#ffe7ad" fill-rule="evenodd"/>
      <path id="Path_7701" data-name="Path 7701" d="M36.282,12.563a3.277,3.277,0,0,1-4.625-.138L28.977,9.58a3.155,3.155,0,0,1-.473-.65,2.705,2.705,0,0,1-.21-.44,3.285,3.285,0,0,0,.558,3.685l2.68,2.844a3.269,3.269,0,0,0,5.439-3.4,3.239,3.239,0,0,1-.69.939" transform="translate(155.729 47.283)" fill="#ffd26b" fill-rule="evenodd"/>
    </g>
  </g>
</svg>
