<svg id="Group_1092" data-name="Group 1092" xmlns="http://www.w3.org/2000/svg" xmlns:xlink="http://www.w3.org/1999/xlink" width="342.668" height="207.488" viewBox="0 0 342.668 207.488">
  <defs>
    <clipPath id="clip-path">
      <rect id="Rectangle_1405" data-name="Rectangle 1405" width="342.668" height="207.488" fill="none"/>
    </clipPath>
  </defs>
  <rect id="Rectangle_1369" data-name="Rectangle 1369" width="14.664" height="41.232" transform="translate(120.069 68.466) rotate(-61.888)" fill="#1a1a1a"/>
  <g id="Group_1091" data-name="Group 1091" transform="translate(0 0)">
    <g id="Group_1090" data-name="Group 1090" clip-path="url(#clip-path)">
      <path id="Path_7702" data-name="Path 7702" d="M54.171,48.744a26.932,26.932,0,0,1-.459-13.906l.87-3.637L21.817,13.683l-5.7-3.032-1.353,6.307a79.056,79.056,0,0,0-.7,31.46,74.123,74.123,0,0,0,11.707,28l2.006,2.96,37.042-11.03-3.649-5.485a52.8,52.8,0,0,1-7-14.123M31.929,67.978a63.308,63.308,0,0,1-8.3-21.348,66.608,66.608,0,0,1-.459-21.191L43.54,36.324a37.08,37.08,0,0,0,1.3,15.126A54.089,54.089,0,0,0,49.653,62.7Z" transform="translate(141.875 118.029)" fill-rule="evenodd"/>
      <path id="Path_7703" data-name="Path 7703" d="M44.5,26.988,15.057,11.258c-4.47,20.865-.773,39.349,10.293,55.72l27.292-8.131c-6.717-10.1-10.825-20.539-8.143-31.859" transform="translate(146.339 124.756)" fill="#333" fill-rule="evenodd"/>
      <path id="Path_7704" data-name="Path 7704" d="M13.424,28.007l5.135,13.785,1.631,4.349L64.589,31.9,58.367,14.56Z" transform="translate(148.761 161.347)" fill-rule="evenodd"/>
      <path id="Path_7705" data-name="Path 7705" d="M13.952,25.688l3.31,8.9L52.468,23.307l-2.96-8.252Z" transform="translate(154.608 166.841)" fill="#4d4d4d" fill-rule="evenodd"/>
      <path id="Path_7706" data-name="Path 7706" d="M21.864,15.426l-6.4-3.419c-2.114,10.233.435,25.794,4.3,34.058l6.391-1.438c-3.177-7.333-6.174-21.227-4.289-29.2" transform="translate(162.863 133.056)" fill="#1a1a1a" fill-rule="evenodd"/>
      <path id="Path_7707" data-name="Path 7707" d="M21.582,15.2l-.785-.423-2.646-1.414L14.66,11.5c-2.5,11.212.411,32.717,5.1,42.539l6.754-1.522C21.425,42,19.214,26.7,21.582,15.2" transform="translate(152.283 127.471)" fill="#1a1a1a" fill-rule="evenodd"/>
      <path id="Path_7708" data-name="Path 7708" d="M20.606,15.883l.1.145-4.615,1.377,2.743,8.372,7.2-2.308-2.875-8.348Z" transform="translate(178.279 167.575)" fill="#666" fill-rule="evenodd"/>
      <path id="Path_7709" data-name="Path 7709" d="M15.385,16.849l2.9,8.517,4.869-1.559L20.266,15.4Z" transform="translate(170.493 170.649)" fill="#666" fill-rule="evenodd"/>
      <path id="Path_7710" data-name="Path 7710" d="M21.815,9.736,12.391,27.375l46.1,24.646L67.93,34.382,26.1,12.019ZM54.507,38.865,25.536,23.376l.266-.5L54.773,38.369Z" transform="translate(137.311 107.89)" fill-rule="evenodd"/>
      <rect id="Rectangle_1370" data-name="Rectangle 1370" width="10.286" height="42.565" transform="translate(156.273 133.27) rotate(-61.871)" fill="#4d4d4d"/>
      <path id="Path_7711" data-name="Path 7711" d="M44.561,16.248,4.813,49.339l29.322,15.67L68.652,37.922,76.444,9.929,53.767,6.208Zm19.6,1.522L60.134,32.219,33.1,53.435l-10.97-5.872c12.818-10.668,24.236-18.9,35.242-30.9Z" transform="translate(53.335 68.794)" fill-rule="evenodd"/>
      <path id="Path_7712" data-name="Path 7712" d="M39.973,15,5.529,43.67l20.14,10.765L56.453,30.284,62.361,9.057,47.633,6.64Z" transform="translate(61.271 73.586)" fill="#333" fill-rule="evenodd"/>
      <path id="Path_7713" data-name="Path 7713" d="M57.516,14.767,56.779,17.4l-.326,1.172L25.669,42.723l-12.915-6.9L5.529,41.841,25.681,52.606,56.453,28.467l3.455-12.42L62.36,7.24,59.727,6.8Z" transform="translate(61.27 75.409)" fill="#1a1a1a" fill-rule="evenodd"/>
      <path id="Path_7714" data-name="Path 7714" d="M25.506,14.414l-2.718-.967L22.872,13l-2.827-1.51L15.2,20.564l7.2,3.842,4.845-9.061L25.6,14.451Z" transform="translate(168.441 127.333)" fill="#666" fill-rule="evenodd"/>
      <rect id="Rectangle_1371" data-name="Rectangle 1371" width="10.28" height="4.084" transform="translate(177.397 144.56) rotate(-61.917)" fill="#666"/>
      <path id="Path_7715" data-name="Path 7715" d="M55.428,35.7,37.391,44.545,24.451,37.634l1.691-22.472L10.666,6.9,9.507,46.514l29.31,15.67L66.737,48.1l-9.013-4.808Z" transform="translate(105.347 76.447)" fill-rule="evenodd"/>
      <path id="Path_7716" data-name="Path 7716" d="M47.876,35.262,32.75,42.681,14.809,33.088,16.5,10.628,10.762,7.56,9.916,36.326,34.333,49.374l17.313-8.723L49.1,39.286Z" transform="translate(109.889 83.772)" fill="#4d4d4d" fill-rule="evenodd"/>
      <path id="Path_7717" data-name="Path 7717" d="M14.326,8.086,13.662,9.33a20.186,20.186,0,0,0-2.573,12.263,14.071,14.071,0,0,0,5.461,9.436l2.018,1.51-.169-3.19a18.15,18.15,0,0,1,1.027-7.587,14.067,14.067,0,0,1,4.6-6.017l1.9-1.474L15.2,8.545ZM17.48,21.279a19.88,19.88,0,0,0-1.244,5.666,12.28,12.28,0,0,1-2.972-6.536,16.153,16.153,0,0,1,1.5-8.868l6.778,3.612a17.339,17.339,0,0,0-4.059,6.125" transform="translate(121.216 89.605)" fill-rule="evenodd"/>
      <path id="Path_7718" data-name="Path 7718" d="M16.3,28.258c-.314-5.932,1.256-11.175,6.367-15.15L13.517,8.227C8.938,16.8,11.161,24.428,16.3,28.258" transform="translate(122.231 91.168)" fill="#333" fill-rule="evenodd"/>
      <path id="Path_7719" data-name="Path 7719" d="M31.854,7.956,16.027,37.58l132.462,70.8,15.839-29.624L36.167,10.264ZM151.8,81.544l-7.938,14.836L28.6,34.777l7.925-14.836Z" transform="translate(177.603 88.165)" fill-rule="evenodd"/>
      <rect id="Rectangle_1372" data-name="Rectangle 1372" width="25.206" height="140.444" transform="matrix(0.471, -0.882, 0.882, 0.471, 199.918, 124.346)" fill="#333"/>
      <rect id="Rectangle_1373" data-name="Rectangle 1373" width="6.864" height="140.449" transform="translate(207.362 110.422) rotate(-61.881)" fill="#4d4d4d"/>
      <path id="Path_7720" data-name="Path 7720" d="M37,8,16.662,46.029l10.777,5.763L47.76,13.747,38.711,8.914ZM28.586,41.341l-3.878-2.066L35.835,18.434l3.89,2.078Z" transform="translate(184.64 88.608)" fill-rule="evenodd"/>
      <rect id="Rectangle_1374" data-name="Rectangle 1374" width="33.371" height="8.302" transform="matrix(0.471, -0.882, 0.882, 0.471, 205.322, 131.256)" fill="#333"/>
      <rect id="Rectangle_1375" data-name="Rectangle 1375" width="8.562" height="8.302" transform="matrix(0.471, -0.882, 0.882, 0.471, 205.323, 131.253)" fill="#1a1a1a"/>
      <rect id="Rectangle_1376" data-name="Rectangle 1376" width="4.286" height="8.302" transform="matrix(0.471, -0.882, 0.882, 0.471, 218.339, 106.904)" fill="#4d4d4d"/>
      <path id="Path_7721" data-name="Path 7721" d="M17.924,10.854l7.321,3.914,1.015-1.885L18.939,8.97Z" transform="translate(198.626 99.397)" fill="#4d4d4d" fill-rule="evenodd"/>
      <path id="Path_7722" data-name="Path 7722" d="M37.835,8.445,17.5,46.478,28.279,52.24,48.6,14.2,39.551,9.363ZM29.426,41.79l-3.878-2.066L36.675,18.883l3.89,2.078Z" transform="translate(193.949 93.583)" fill-rule="evenodd"/>
      <rect id="Rectangle_1377" data-name="Rectangle 1377" width="33.371" height="8.302" transform="matrix(0.471, -0.882, 0.882, 0.471, 215.473, 136.681)" fill="#333"/>
      <rect id="Rectangle_1378" data-name="Rectangle 1378" width="8.564" height="8.307" transform="matrix(0.471, -0.882, 0.882, 0.471, 215.474, 136.678)" fill="#1a1a1a"/>
      <rect id="Rectangle_1379" data-name="Rectangle 1379" width="4.286" height="8.302" transform="matrix(0.471, -0.882, 0.882, 0.471, 228.49, 112.328)" fill="#4d4d4d"/>
      <path id="Path_7723" data-name="Path 7723" d="M18.764,11.3l7.321,3.914L27.1,13.333,19.779,9.419Z" transform="translate(207.936 104.372)" fill="#4d4d4d" fill-rule="evenodd"/>
      <path id="Path_7724" data-name="Path 7724" d="M38.672,8.9,18.351,46.919l10.765,5.739L49.437,14.65,40.388,9.817ZM30.263,42.256l-3.89-2.078L37.512,19.337l3.89,2.078Z" transform="translate(203.357 98.614)" fill-rule="evenodd"/>
      <rect id="Rectangle_1380" data-name="Rectangle 1380" width="33.371" height="8.302" transform="matrix(0.471, -0.882, 0.882, 0.471, 225.723, 142.161)" fill="#333"/>
      <rect id="Rectangle_1381" data-name="Rectangle 1381" width="8.564" height="8.307" transform="matrix(0.471, -0.882, 0.882, 0.471, 225.724, 142.158)" fill="#1a1a1a"/>
      <rect id="Rectangle_1382" data-name="Rectangle 1382" width="4.286" height="8.302" transform="matrix(0.471, -0.882, 0.882, 0.471, 238.74, 117.805)" fill="#4d4d4d"/>
      <path id="Path_7725" data-name="Path 7725" d="M19.613,11.757l7.321,3.914,1.015-1.885L20.628,9.872Z" transform="translate(217.338 109.394)" fill="#4d4d4d" fill-rule="evenodd"/>
      <path id="Path_7726" data-name="Path 7726" d="M39.524,9.348,19.191,47.381l10.777,5.763L50.289,15.1,41.24,10.266ZM31.115,42.693l-3.878-2.066L38.364,19.8l3.89,2.066Z" transform="translate(212.665 103.59)" fill-rule="evenodd"/>
      <rect id="Rectangle_1383" data-name="Rectangle 1383" width="33.371" height="8.302" transform="matrix(0.471, -0.882, 0.882, 0.471, 235.874, 147.585)" fill="#333"/>
      <rect id="Rectangle_1384" data-name="Rectangle 1384" width="8.564" height="8.307" transform="matrix(0.471, -0.882, 0.882, 0.471, 235.875, 147.582)" fill="#1a1a1a"/>
      <rect id="Rectangle_1385" data-name="Rectangle 1385" width="4.286" height="8.302" transform="matrix(0.471, -0.882, 0.882, 0.471, 248.891, 123.229)" fill="#4d4d4d"/>
      <rect id="Rectangle_1386" data-name="Rectangle 1386" width="2.151" height="8.302" transform="matrix(0.471, -0.882, 0.882, 0.471, 247.101, 126.579)" fill="#4d4d4d"/>
      <path id="Path_7727" data-name="Path 7727" d="M40.417,9.825,20.084,47.858l10.765,5.751L51.17,15.576l-9.037-4.833ZM32.008,43.17l-3.89-2.078L39.257,20.263l3.878,2.078Z" transform="translate(222.561 108.876)" fill-rule="evenodd"/>
      <rect id="Rectangle_1387" data-name="Rectangle 1387" width="33.371" height="8.302" transform="matrix(0.471, -0.882, 0.882, 0.471, 246.664, 153.349)" fill="#333"/>
      <rect id="Rectangle_1388" data-name="Rectangle 1388" width="8.562" height="8.302" transform="matrix(0.471, -0.882, 0.882, 0.471, 246.665, 153.35)" fill="#1a1a1a"/>
      <rect id="Rectangle_1389" data-name="Rectangle 1389" width="4.286" height="8.302" transform="matrix(0.471, -0.882, 0.882, 0.471, 259.678, 128.996)" fill="#4d4d4d"/>
      <path id="Path_7728" data-name="Path 7728" d="M21.346,12.683,28.667,16.6l1.015-1.885L22.361,10.8Z" transform="translate(236.546 119.66)" fill="#4d4d4d" fill-rule="evenodd"/>
      <path id="Path_7729" data-name="Path 7729" d="M41.246,10.274,20.925,48.307l10.753,5.751L52,16.025l-9.037-4.833ZM32.837,43.619l-3.89-2.078L40.086,20.712l3.878,2.078Z" transform="translate(231.88 113.851)" fill-rule="evenodd"/>
      <rect id="Rectangle_1390" data-name="Rectangle 1390" width="33.371" height="8.302" transform="matrix(0.471, -0.882, 0.882, 0.471, 256.815, 158.774)" fill="#333"/>
      <rect id="Rectangle_1391" data-name="Rectangle 1391" width="8.562" height="8.302" transform="matrix(0.471, -0.882, 0.882, 0.471, 256.816, 158.775)" fill="#1a1a1a"/>
      <rect id="Rectangle_1392" data-name="Rectangle 1392" width="4.286" height="8.302" transform="matrix(0.471, -0.882, 0.882, 0.471, 269.829, 134.42)" fill="#4d4d4d"/>
      <path id="Path_7730" data-name="Path 7730" d="M22.186,13.132l7.321,3.914,1.015-1.885L23.2,11.247Z" transform="translate(245.856 124.636)" fill="#4d4d4d" fill-rule="evenodd"/>
      <path id="Path_7731" data-name="Path 7731" d="M42.094,10.727,21.773,48.76l10.765,5.763L52.859,16.49l-9.037-4.845ZM33.685,44.072l-3.878-2.078L40.946,21.165l3.878,2.078Z" transform="translate(241.278 118.871)" fill-rule="evenodd"/>
      <rect id="Rectangle_1393" data-name="Rectangle 1393" width="33.371" height="8.302" transform="matrix(0.471, -0.882, 0.882, 0.471, 267.065, 164.253)" fill="#333"/>
      <rect id="Rectangle_1394" data-name="Rectangle 1394" width="8.562" height="8.302" transform="matrix(0.471, -0.882, 0.882, 0.471, 267.066, 164.254)" fill="#1a1a1a"/>
      <rect id="Rectangle_1395" data-name="Rectangle 1395" width="4.286" height="8.302" transform="matrix(0.471, -0.882, 0.882, 0.471, 280.079, 139.901)" fill="#4d4d4d"/>
      <path id="Path_7732" data-name="Path 7732" d="M23.035,13.585,30.356,17.5l1.015-1.885L24.049,11.7Z" transform="translate(255.258 129.661)" fill="#4d4d4d" fill-rule="evenodd"/>
      <path id="Path_7733" data-name="Path 7733" d="M47.643,2.257,14.371,28.281,8.753,32.69,34.97,48.106,51.594,32.449,88.141,51.984l2.247,20.381,29.745,15.9-8.916-52.047ZM99.5,66.216,97.262,45.835,50,20.573,33.593,36.025l-7.611-4.482L48.646,13.807l53.775,28.73,4.748,27.787Z" transform="translate(96.996 25.011)" fill-rule="evenodd"/>
      <path id="Path_7734" data-name="Path 7734" d="M40.238,2.734,9.466,26.825,26.381,36.78,42.9,21.219l41.9,22.4L87.042,64l18.714,10L98.918,34.1Z" transform="translate(104.903 30.297)" fill="#4d4d4d" fill-rule="evenodd"/>
      <path id="Path_7735" data-name="Path 7735" d="M30.321,3.788,10.58,23.07l3.455,2.03L30.551,9.539l41.911,22.4L74.7,52.319l4.168,2.223L76.388,28.41Z" transform="translate(117.245 41.976)" fill="#333" fill-rule="evenodd"/>
      <path id="Path_7736" data-name="Path 7736" d="M122.35,40.235,67.186,10.744,43.144,14.525,25.094,4.872,8.82,35.317l29.02,15.5,4.071,13.423L108.988,100.1,129.8,65.376l-6.874-23.2ZM105.4,87.159,50.03,57.572,45.971,44.149,21.965,31.318l7.116-13.29,12.347,6.609L65.47,20.856l48.7,26.024,5.086,17.156Z" transform="translate(97.739 53.989)" fill-rule="evenodd"/>
      <path id="Path_7737" data-name="Path 7737" d="M60.3,9.755,36.258,13.536,21.047,5.418,9.365,27.285l26.507,14.16,4.071,13.423,61.229,32.717L118.5,58.661l-6.27-21.155Z" transform="translate(103.773 60.036)" fill="#666" fill-rule="evenodd"/>
      <path id="Path_7738" data-name="Path 7738" d="M10.174,8.993,26.1,17.317l1.184-3.769-15.2-8.131Z" transform="translate(112.744 60.027)" fill="#999" fill-rule="evenodd"/>
      <path id="Path_7739" data-name="Path 7739" d="M80.947,25.867,33.648.592,1.028,61.64l14.715,7.877,56.674,3.1,9.436,5.038,4.277,2.3,17.712-33.14L86.71,37.67Zm1.2,40.932L76.03,63.525l-.954-.507L18.4,59.912l-4.229-2.259L37.647,13.737l35.906,19.2,5.763,11.8,11.369,6.077Z" transform="translate(11.392 6.56)" fill-rule="evenodd"/>
      <path id="Path_7740" data-name="Path 7740" d="M71.222,23.367,29.613,1.137,1.572,53.619l9.472,5.062,56.674,3.1,10.39,5.557L91.229,42.782,76.984,35.17Z" transform="translate(17.417 12.599)" fill="#333" fill-rule="evenodd"/>
      <path id="Path_7741" data-name="Path 7741" d="M48.216,23.378,6.608,1.136,4.276,5.522,3.648,6.694l41.6,22.23,5.775,11.8,14.244,7.611.423-.8,2.537-4.748L53.979,35.17Z" transform="translate(40.422 12.591)" fill="#4d4d4d" fill-rule="evenodd"/>
      <path id="Path_7742" data-name="Path 7742" d="M17.133,9.6,7.661,4.536l-6.089,11.4L11.032,21,67.706,24.12l10.4,5.557L84.2,18.261l-10.39-5.545Z" transform="translate(17.419 50.268)" fill="#1a1a1a" fill-rule="evenodd"/>
      <path id="Path_7743" data-name="Path 7743" d="M33.519,3.146,7.121,52.535,32.456,66.079l26.4-49.389L37.8,5.429Zm-5.05,49.776-8.191-4.386L37.506,16.291l8.2,4.386Z" transform="translate(78.911 34.862)" fill-rule="evenodd"/>
      <rect id="Rectangle_1396" data-name="Rectangle 1396" width="46.275" height="19.01" transform="matrix(0.471, -0.882, 0.882, 0.471, 92.612, 85.395)" fill="#4d4d4d"/>
      <path id="Path_7744" data-name="Path 7744" d="M36.921,0,0,69.058l17.869,9.556L54.778,9.544,41.2,2.283ZM13.87,65.458l-.713-.387L40.908,13.145l.713.387Z" transform="translate(0 0)" fill-rule="evenodd"/>
      <rect id="Rectangle_1397" data-name="Rectangle 1397" width="68.592" height="10.54" transform="translate(6.576 67.072) rotate(-61.877)" fill="#4d4d4d"/>
      <path id="Path_7745" data-name="Path 7745" d="M37.109,7.336l-.773-.411-.713.5L11.412,24.166,13.031,26.5l23.5-16.238,34.94,18.678-6.705,35.1,2.815,1,6.886-36.595.193-1.039-.918-.5Z" transform="translate(126.458 76.746)" fill-rule="evenodd"/>
      <path id="Path_7746" data-name="Path 7746" d="M11.443,5.186,9.1,9.572l16.769,8.964,3.02-5.654L12.119,3.918Z" transform="translate(100.832 43.413)" fill="#666" fill-rule="evenodd"/>
      <rect id="Rectangle_1398" data-name="Rectangle 1398" width="6.41" height="19.015" transform="matrix(0.471, -0.882, 0.882, 0.471, 106.11, 60.136)" fill="#666"/>
      <path id="Path_7747" data-name="Path 7747" d="M2.93,6.275,12.22,11.24l2.344-4.386.677-1.269L5.95.62Z" transform="translate(32.464 6.876)" fill="#666" fill-rule="evenodd"/>
      <rect id="Rectangle_1399" data-name="Rectangle 1399" width="6.41" height="10.534" transform="matrix(0.471, -0.882, 0.882, 0.471, 31.576, 20.301)" fill="#666"/>
      <path id="Path_7748" data-name="Path 7748" d="M13.579,9.123l48.471,25.9L65.2,33.359,13.591,5.777Z" transform="translate(150.477 64.013)" fill="#999" fill-rule="evenodd"/>
      <path id="Path_7749" data-name="Path 7749" d="M20.745,8.06,17.591,9.727l5.533,19,4.2.652L21.071,8.229Z" transform="translate(194.938 89.314)" fill="gray" fill-rule="evenodd"/>
      <path id="Path_7750" data-name="Path 7750" d="M16.685,37.546l3.371,1.8L37.38,10.423l-4.2-.652Z" transform="translate(184.889 108.276)" fill="#4d4d4d" fill-rule="evenodd"/>
      <path id="Path_7751" data-name="Path 7751" d="M11.492,13.339,36.706,9.123l.012-3.347L12.676,9.57Z" transform="translate(127.351 64.01)" fill="gray" fill-rule="evenodd"/>
      <path id="Path_7752" data-name="Path 7752" d="M16.117,9.812a2.062,2.062,0,1,0,2.791-.846,2.067,2.067,0,0,0-2.791.846" transform="translate(175.93 96.626)" fill="#333" fill-rule="evenodd"/>
      <path id="Path_7753" data-name="Path 7753" d="M13.639,8.488a2.067,2.067,0,1,0,2.8-.846,2.067,2.067,0,0,0-2.8.846" transform="translate(148.47 81.954)" fill="#333" fill-rule="evenodd"/>
      <path id="Path_7754" data-name="Path 7754" d="M17.327,8.065a2.324,2.324,0,0,0-2.2,4.1L30.351,20.3a2.324,2.324,0,1,0,2.2-4.1Z" transform="translate(154.17 86.352)" fill-rule="evenodd"/>
      <path id="Path_7755" data-name="Path 7755" d="M17.072,8.54a2.321,2.321,0,1,0-2.187,4.1l15.223,8.143A2.327,2.327,0,0,0,32.3,16.671Z" transform="translate(151.356 91.616)" fill-rule="evenodd"/>
      <path id="Path_7756" data-name="Path 7756" d="M16.822,9.008a2.321,2.321,0,1,0-2.187,4.1l15.223,8.143A2.34,2.34,0,0,0,33,20.292V20.28a2.33,2.33,0,0,0-.954-3.141Z" transform="translate(148.586 96.802)" fill-rule="evenodd"/>
      <path id="Path_7757" data-name="Path 7757" d="M17.407,9.336A2.067,2.067,0,1,0,20.2,8.49a2.074,2.074,0,0,0-2.791.846" transform="translate(190.165 91.351)" fill="#333" fill-rule="evenodd"/>
      <path id="Path_7758" data-name="Path 7758" d="M13.586,7.3a2.067,2.067,0,1,0,2.8-.846,2.067,2.067,0,0,0-2.8.846" transform="translate(147.883 68.756)" fill="#333" fill-rule="evenodd"/>
      <path id="Path_7759" data-name="Path 7759" d="M9.671,7.876a1.776,1.776,0,1,0,2.4-.725,1.782,1.782,0,0,0-2.4.725" transform="translate(104.862 76.936)" fill="#333" fill-rule="evenodd"/>
      <path id="Path_7760" data-name="Path 7760" d="M10.42,7.03a2.067,2.067,0,1,0,2.791-.846,2.067,2.067,0,0,0-2.791.846" transform="translate(112.799 65.797)" fill="#333" fill-rule="evenodd"/>
      <path id="Path_7761" data-name="Path 7761" d="M16.692,12.681a2.067,2.067,0,1,0,2.791-.846,2.057,2.057,0,0,0-2.791.846" transform="translate(182.242 128.419)" fill="#333" fill-rule="evenodd"/>
      <path id="Path_7762" data-name="Path 7762" d="M44.7,11.333,25.742,29.552,44.493,39.58,57.408,15.417l-9.943-3.2Z" transform="translate(285.26 125.592)" fill-rule="evenodd"/>
      <path id="Path_7763" data-name="Path 7763" d="M26.42,23.364l8.566,4.579L42.863,13.2l-4.4-1.414Z" transform="translate(292.771 130.653)" fill="#333" fill-rule="evenodd"/>
      <path id="Path_7764" data-name="Path 7764" d="M44.806,12,23.977,50.954,49.384,64.521,70.2,25.571,49.119,14.3ZM57.938,27.745,44.383,53.128,36.24,48.779,49.807,23.4Z" transform="translate(265.701 133.011)" fill-rule="evenodd"/>
      <rect id="Rectangle_1400" data-name="Rectangle 1400" width="36.478" height="19.015" transform="matrix(0.471, -0.882, 0.882, 0.471, 295.808, 182.876)" fill="#4d4d4d"/>
      <path id="Path_7765" data-name="Path 7765" d="M27.88,13.971l-2.344,4.386L42.3,27.321l3.008-5.654L28.556,12.7Z" transform="translate(282.975 140.76)" fill="#666" fill-rule="evenodd"/>
      <rect id="Rectangle_1401" data-name="Rectangle 1401" width="6.405" height="19.012" transform="matrix(0.471, -0.882, 0.882, 0.471, 304.689, 166.265)" fill="#666"/>
      <path id="Path_7766" data-name="Path 7766" d="M13.277,8.657,4.3,25.462l40.388,21.59,8.977-16.805L17.554,10.94Z" transform="translate(47.652 95.933)" fill-rule="evenodd"/>
      <rect id="Rectangle_1402" data-name="Rectangle 1402" width="9.472" height="36.092" transform="translate(58.488 119.456) rotate(-61.882)" fill="#4d4d4d"/>
      <rect id="Rectangle_1403" data-name="Rectangle 1403" width="9.475" height="6.602" transform="matrix(0.472, -0.882, 0.882, 0.472, 78.988, 130.412)" fill="#666"/>
      <rect id="Rectangle_1404" data-name="Rectangle 1404" width="9.475" height="4.808" transform="translate(71.558 126.442) rotate(-61.826)" fill="#666"/>
    </g>
  </g>
</svg>
